<svg xmlns="http://www.w3.org/2000/svg" width="20.529" height="19.015" viewBox="0 0 20.529 19.015"><defs><style>.a{fill:#008bcf;}</style></defs><g transform="translate(-12 -30)"><g transform="translate(12 30)"><path class="a" d="M30.131,31.514H28.785v-.8a.715.715,0,1,0-1.43,0v.8H17.469v-.8a.715.715,0,1,0-1.43,0v.8H14.4A2.391,2.391,0,0,0,12,33.9V46.617a2.4,2.4,0,0,0,2.4,2.4H30.131a2.4,2.4,0,0,0,2.4-2.4V33.9A2.389,2.389,0,0,0,30.131,31.514Zm.968,15.1a.968.968,0,0,1-.968.968H14.4a.968.968,0,0,1-.968-.968V37.53H31.1ZM13.43,36.1V33.9a.957.957,0,0,1,.968-.955h1.641v.534a.715.715,0,1,0,1.43,0v-.534h9.886v.534a.715.715,0,1,0,1.43,0v-.534h1.346a.957.957,0,0,1,.968.955v2.2Z" transform="translate(-12 -30)"/></g></g></svg>