<svg xmlns="http://www.w3.org/2000/svg" width="26" height="19.867" viewBox="0 0 26 19.867"><defs><style>.a{fill:#fff;}</style></defs><g transform="translate(-8.1 -13.8)"><g transform="translate(8.1 13.8)"><path class="a" d="M-44.4-214.256l-1.017-.844-9.417,7.816a3.57,3.57,0,0,1-4.334,0l-9.417-7.771-1.017.844,7.009,5.817-7.009,5.817,1.017.844,7.009-5.817,1.391,1.155a4.95,4.95,0,0,0,3.157,1.11,4.95,4.95,0,0,0,3.157-1.11l1.391-1.155,7.009,5.817,1.017-.844-7.009-5.817,7.062-5.862" transform="translate(69.9 218.2)"/><path class="a" d="M-46.18-198.334H-67.62a2.294,2.294,0,0,1-2.28-2.28V-215.92a2.294,2.294,0,0,1,2.28-2.28H-46.18a2.294,2.294,0,0,1,2.28,2.28v15.307a2.294,2.294,0,0,1-2.28,2.28Zm-21.495-18.4a.742.742,0,0,0-.76.76v15.307a.742.742,0,0,0,.76.76h21.441a.742.742,0,0,0,.76-.76v-15.307a.742.742,0,0,0-.76-.76Z" transform="translate(69.9 218.2)"/></g></g></svg>