<svg xmlns="http://www.w3.org/2000/svg" width="50" height="56" viewBox="0 0 50 56"><defs><style>.a{fill:#008bcf;}</style></defs><g transform="translate(0 0.379)"><rect class="a" width="10" height="2" transform="translate(7 53.621)"/><rect class="a" width="2" height="2" transform="translate(8 8.621)"/><rect class="a" width="6" height="2" transform="translate(6 4.621)"/><rect class="a" width="2" height="2" transform="translate(8 16.621)"/><rect class="a" width="6" height="2" transform="translate(38 12.621)"/><rect class="a" width="2" height="3" transform="translate(8 -0.379)"/><rect class="a" width="6" height="2" transform="translate(6 12.621)"/><rect class="a" width="2" height="3" transform="translate(24 -0.379)"/><rect class="a" width="2" height="2" transform="translate(40 16.621)"/><rect class="a" width="6" height="2" transform="translate(22 4.621)"/><rect class="a" width="2" height="2" transform="translate(24 8.621)"/><rect class="a" width="2" height="2" transform="translate(24 16.621)"/><rect class="a" width="2" height="2" transform="translate(40 8.621)"/><rect class="a" width="6" height="2" transform="translate(22 12.621)"/><rect class="a" width="6" height="2" transform="translate(38 4.621)"/><rect class="a" width="50" height="2" transform="translate(0 20.621)"/><path class="a" d="M10,29V52H54V29Zm4,21H12V31h2Zm4,0H16V31h2Zm26-1a1,1,0,0,1-1,1H21a1,1,0,0,1-1-1V32a1,1,0,0,1,1-1H43a1,1,0,0,1,1,1Zm4,1H46V31h2Zm4,0H50V31h2Z" transform="translate(-7 -4)"/><path class="a" d="M22,48H42V33H22Zm18-2H38V44h2ZM31,35h5a1,1,0,0,1,.8,1.6L35,39h3a1,1,0,0,1,.65,1.759l-7,6A1,1,0,0,1,30,46V43H26a1,1,0,0,1-.769-1.641l5-6A1,1,0,0,1,31,35Zm-7,0h2v2H24Z" transform="translate(-7 -4)"/><rect class="a" width="2" height="3" transform="translate(40 -0.379)"/><path class="a" d="M32,42v1.826L35.3,41H33a1,1,0,0,1-.8-1.6L34,37H31.469l-3.334,4H31A1,1,0,0,1,32,42Z" transform="translate(-7 -4)"/><rect class="a" width="48" height="2" transform="translate(1 49.621)"/><rect class="a" width="10" height="2" transform="translate(33 53.621)"/></g></svg>