<svg xmlns="http://www.w3.org/2000/svg" width="42.03" height="42.03" viewBox="0 0 42.03 42.03"><defs><style>.a{fill:#008bcf;}</style></defs><g transform="translate(8.676 13.586)"><path class="a" d="M106.881,166a.881.881,0,1,0,.881.881A.881.881,0,0,0,106.881,166Z" transform="translate(-106 -166)"/></g><path class="a" d="M21.015,0A21.46,21.46,0,0,0,8.647,4.066,3.282,3.282,0,0,0,4.066,8.648,21.461,21.461,0,0,0,0,21.015,21.369,21.369,0,0,0,21.015,42.03,21.371,21.371,0,0,0,42.03,21.015,21.369,21.369,0,0,0,21.015,0ZM6.731,5.09A1.642,1.642,0,1,1,5.09,6.731,1.645,1.645,0,0,1,6.731,5.09ZM20.194,40.368A19.669,19.669,0,0,1,1.661,21.836H7.085a13.778,13.778,0,0,0,.931,4.253A3.283,3.283,0,0,0,11.7,31.395a13.852,13.852,0,0,0,8.5,3.55ZM10.343,25.119a3.279,3.279,0,0,0-.892.124,12.087,12.087,0,0,1-.721-3.408h4.944a7.391,7.391,0,0,0,6.521,6.521V33.3a12.216,12.216,0,0,1-7.205-2.956,3.281,3.281,0,0,0-2.645-5.225Zm0,1.642A1.642,1.642,0,1,1,8.7,28.4,1.644,1.644,0,0,1,10.343,26.761Zm9.851-.059a5.757,5.757,0,0,1-4.867-4.867h4.867Zm0-6.508H15.327a5.756,5.756,0,0,1,4.867-4.867Zm0-13.11a13.862,13.862,0,0,0-9.206,4.233.821.821,0,1,0,1.18,1.142,12.232,12.232,0,0,1,8.026-3.73v4.944a7.391,7.391,0,0,0-6.521,6.521H8.729a12.294,12.294,0,0,1,.416-2.459A.821.821,0,1,0,7.562,17.3a13.944,13.944,0,0,0-.477,2.9H1.661A19.878,19.878,0,0,1,5.33,9.7,3.282,3.282,0,0,0,9.7,5.331,19.878,19.878,0,0,1,20.194,1.661Zm20.174,13.11H34.945a13.83,13.83,0,0,0-3.5-8.445L35.18,8.011A19.475,19.475,0,0,1,40.368,20.194ZM33.328,28.4a1.642,1.642,0,1,1-1.642-1.642A1.644,1.644,0,0,1,33.328,28.4ZM33.3,20.194H28.356a7.309,7.309,0,0,0-1.572-3.788l3.494-3.494A12.2,12.2,0,0,1,33.3,20.194ZM21.836,1.662A19.475,19.475,0,0,1,34.019,6.85L21.836,19.033ZM26.7,20.194H23l2.618-2.618A5.68,5.68,0,0,1,26.7,20.194Zm-4.867,1.634H26.7A5.765,5.765,0,0,1,21.836,26.7Zm0,6.529a7.4,7.4,0,0,0,6.521-6.529H33.3a12.487,12.487,0,0,1-.245,1.774,12.274,12.274,0,0,1-.476,1.642,3.281,3.281,0,0,0-3.538,5.1A12.216,12.216,0,0,1,21.836,33.3Zm0,12.012V34.945a13.852,13.852,0,0,0,8.5-3.55,3.283,3.283,0,0,0,3.682-5.306,13.93,13.93,0,0,0,.646-2.143,14.129,14.129,0,0,0,.285-2.118h5.423A19.677,19.677,0,0,1,21.836,40.368Z"/></svg>