<svg xmlns="http://www.w3.org/2000/svg" width="70" height="69.788" viewBox="0 0 70 69.788"><defs><style>.a{fill:#fff;}</style></defs><g transform="translate(-205 -909.427)"><path class="a" d="M48.1,233l-1.14-2.28.812-6.5a30.019,30.019,0,0,0,0-7.442l-.841-6.731,1.316-1.316V208H32v.732l1.316,1.316-.868,6.946a30.032,30.032,0,0,0-.048,7.034l.909,8.181-.791.791Zm-4.853-8.75H37v-2.5h6.25Zm-7.5-7.5H44.5v2.5H35.75Z" transform="translate(173 728.714)"/><rect class="a" width="2.5" height="5" transform="translate(267.5 942.964)"/><path class="a" d="M369.5,248v7.5H362V248H352v13.75h20V248Z" transform="translate(-97 694.964)"/><path class="a" d="M355.816,211.75h18.807l-1.5-3.75H357.316Z" transform="translate(-100.22 728.714)"/><path class="a" d="M196.951,41.211l1.819-2.89-.312-.44-3.231.878-2.447-1.822-.182-3.422-.467-.155-2.107,2.653h-3.047l-2.107-2.653-.467.155-.182,3.422-2.447,1.822-3.231-.878-.312.44,1.819,2.89-.923,2.911L176,45.362v.57l3.126,1.241.923,2.911-1.819,2.89.312.44,3.231-.878,2.447,1.822.182,3.422.467.155,2.107-2.653h3.047l2.107,2.653.467-.155.182-3.422,2.447-1.822,3.231.878.312-.44-1.819-2.89.923-2.911L201,45.932v-.57l-3.126-1.241ZM188.5,51.9a6.25,6.25,0,1,1,6.25-6.25A6.25,6.25,0,0,1,188.5,51.9Z" transform="translate(51.5 876.067)"/><path class="a" d="M200.805,292.857a3.76,3.76,0,0,0-2.676-3.035l-3.856-1.1a3.766,3.766,0,0,1-2.72-3.606v-1.132l1.4-1.4a3.726,3.726,0,0,0,1.1-2.652V275.75a3.75,3.75,0,0,0-7.5,0v4.179a3.726,3.726,0,0,0,1.1,2.652l1.4,1.4v1.132a3.766,3.766,0,0,1-2.72,3.606l-3.892,1.112a3.765,3.765,0,0,0-2.67,3c-.508,3.1-1.2,7.4-1.62,10.238a1.25,1.25,0,0,0,1.237,1.432H201.14a1.25,1.25,0,0,0,1.236-1.44Z" transform="translate(49.696 674.714)"/><path class="a" d="M111.652,396.041a32.668,32.668,0,0,0,5.653,4.365l1.3-2.134a30.169,30.169,0,0,1-5.22-4.031Z" transform="translate(105.794 571.573)"/><path class="a" d="M355.834,372.346l1.3,2.134a32.869,32.869,0,0,0,10.028-9.564l-2.07-1.4A30.352,30.352,0,0,1,355.834,372.346Z" transform="translate(-100.235 597.499)"/><path class="a" d="M361.26,90.007l2.291-1a32.737,32.737,0,0,0-14.194-15.517l-1.2,2.192A30.226,30.226,0,0,1,361.26,90.007Z" transform="translate(-93.755 842.208)"/><path class="a" d="M78.306,85.723l-1.4-2.07A32.537,32.537,0,0,0,65.31,97.582l2.291,1a30.04,30.04,0,0,1,10.705-12.86Z" transform="translate(144.895 833.632)"/></g></svg>