<svg xmlns="http://www.w3.org/2000/svg" width="24" height="26.1" viewBox="0 0 24 26.1"><defs><style>.a{fill:#fff;}</style></defs><g transform="translate(380.18 -297.491)"><g transform="translate(-380.18 297.491)"><path class="a" d="M34,11V8.3a1.8,1.8,0,0,0-1.8-1.8c-.041,0-.081,0-.121.006V6.5H23.858A2.159,2.159,0,0,0,21.7,8.654V14.3H19.9v-.25A1.256,1.256,0,0,0,18.645,12.8h-3.19A1.256,1.256,0,0,0,14.2,14.05v.25a1.506,1.506,0,0,0-1.5,1.5v3.9H11.513A1.506,1.506,0,0,0,10,21.195v9.91A1.506,1.506,0,0,0,11.513,32.6h4.774A1.506,1.506,0,0,0,17.8,31.105V30.5H32.5A1.506,1.506,0,0,0,34,29V15.8a1.506,1.506,0,0,0-1.5-1.5H31.3V11Zm-.9-2.7v1.8H31.3V8.295a.9.9,0,0,1,1.8,0Zm-18,5.752a.355.355,0,0,1,.355-.355h3.191A.355.355,0,0,1,19,14.05V26.545a.355.355,0,0,1-.355.355h-3.19a.355.355,0,0,1-.355-.355V14.05ZM13.6,15.8a.605.605,0,0,1,.6-.6V26.545A1.256,1.256,0,0,0,15.455,27.8H16.9v1.8H14.205A.605.605,0,0,1,13.6,29Zm3.3,15.3a.6.6,0,0,1-.613.595H11.513a.605.605,0,0,1-.613-.595V21.195a.6.6,0,0,1,.613-.595H12.7V29a1.507,1.507,0,0,0,1.505,1.5H16.9ZM32.5,15.2a.606.606,0,0,1,.6.6V29a.606.606,0,0,1-.6.6H17.8V27.8h.845A1.256,1.256,0,0,0,19.9,26.545V15.2h1.8v1.2h-.9v.9H32.2v-.9h-.9V15.2ZM30.4,16.4H22.6V8.654A1.258,1.258,0,0,1,23.858,7.4H30.4v.892s0,0,0,.006V11h0Z" transform="translate(-10 -6.5)"/><rect class="a" width="3" height="1" transform="translate(11.76 15.959)"/><path class="a" d="M60.451,46.5H51V50h9.45ZM59.4,48.95h-7.35v-1.4H59.4Z" transform="translate(-39.971 -34.76)"/><rect class="a" width="3" height="1" transform="translate(15.12 15.959)"/><rect class="a" width="2" height="1" transform="translate(18.174 15.959)"/><rect class="a" width="3" height="1" transform="translate(11.76 17.664)"/><rect class="a" width="3" height="1" transform="translate(15.12 17.664)"/><rect class="a" width="2" height="1" transform="translate(18.174 17.664)"/><rect class="a" width="3" height="1" transform="translate(11.76 19.368)"/><rect class="a" width="3" height="1" transform="translate(15.12 19.368)"/><rect class="a" width="2" height="1" transform="translate(18.174 19.368)"/><rect class="a" width="3" height="1" transform="translate(15.12 20.571)"/></g></g></svg>