<svg xmlns="http://www.w3.org/2000/svg" width="30.336" height="26" viewBox="0 0 30.336 26"><defs><style>.a{fill:#403d3e;}</style></defs><g transform="translate(-7.996 -14)"><path class="a" d="M38.131,15.265A2.158,2.158,0,0,0,36.149,14H10.179A2.158,2.158,0,0,0,8.2,15.265a2.136,2.136,0,0,0,.322,2.306h0l10.31,12v9.348a1.083,1.083,0,0,0,1.684.9l6.5-4.333a1.083,1.083,0,0,0,.482-.9V29.568l10.312-12A2.136,2.136,0,0,0,38.131,15.265ZM25.592,28.46a1.086,1.086,0,0,0-.262.706V34L21,36.893V29.167a1.085,1.085,0,0,0-.262-.706L10.173,16.167H36.164Z"/></g></svg>