<svg xmlns="http://www.w3.org/2000/svg" width="46.113" height="74.328" viewBox="0 0 46.113 74.328"><defs><style>.a{fill:#008bcf;}</style></defs><path class="a" d="M16.421,33.181H58.69a1.921,1.921,0,1,0,0-3.843H39.477V2.546a1.921,1.921,0,1,0-3.843,0V29.338H16.421a1.921,1.921,0,1,0,0,3.843Z" transform="translate(-14.5 -0.625)"/><path class="a" d="M58.691,38.957H16.422a1.921,1.921,0,0,0,0,3.843H35.635V69.593a1.921,1.921,0,1,0,3.843,0V42.8H58.691a1.921,1.921,0,0,0,0-3.843Z" transform="translate(-14.5 2.814)"/></svg>