<svg xmlns="http://www.w3.org/2000/svg" width="69.505" height="69.505" viewBox="0 0 69.505 69.505"><defs><style>.a{fill:#008bcf;}</style></defs><path class="a" d="M20.374,18.26a1.39,1.39,0,0,0-1.966-1.966,27.2,27.2,0,0,0,0,38.425,1.39,1.39,0,0,0,1.966-1.966A24.419,24.419,0,0,1,20.374,18.26Z" transform="translate(-2.869 -0.753)"/><path class="a" d="M23.339,21.8a1.39,1.39,0,0,0-1.966-1.966,20.243,20.243,0,0,0,0,28.594,1.39,1.39,0,0,0,1.966-1.966A17.46,17.46,0,0,1,23.339,21.8Z" transform="translate(-0.918 0.626)"/><path class="a" d="M26.306,25.332a1.39,1.39,0,0,0-1.966-1.966,13.282,13.282,0,0,0,0,18.762,1.39,1.39,0,0,0,1.966-1.966A10.5,10.5,0,0,1,26.306,25.332Z" transform="translate(1.032 2.006)"/><path class="a" d="M42.522,16.294a1.39,1.39,0,0,0,0,1.966,24.419,24.419,0,0,1,0,34.493,1.39,1.39,0,1,0,1.966,1.966,27.2,27.2,0,0,0,0-38.425A1.39,1.39,0,0,0,42.522,16.294Z" transform="translate(9.478 -0.753)"/><path class="a" d="M40.951,19.83A1.39,1.39,0,0,0,38.986,21.8a17.459,17.459,0,0,1,0,24.662,1.39,1.39,0,1,0,1.966,1.966,20.241,20.241,0,0,0,0-28.594Z" transform="translate(8.099 0.626)"/><path class="a" d="M37.415,23.366a1.39,1.39,0,0,0-1.966,1.966,10.5,10.5,0,0,1,0,14.831,1.39,1.39,0,1,0,1.966,1.966A13.284,13.284,0,0,0,37.415,23.366Z" transform="translate(6.719 2.006)"/><path class="a" d="M31.772,25.458a6.315,6.315,0,1,0,6.315,6.314A6.32,6.32,0,0,0,31.772,25.458Zm0,9.849a3.534,3.534,0,1,1,3.535-3.535A3.538,3.538,0,0,1,31.772,35.307Z" transform="translate(2.981 2.981)"/><path class="a" d="M39.753,5A34.753,34.753,0,1,0,74.505,39.753,34.792,34.792,0,0,0,39.753,5Zm0,66.725A31.972,31.972,0,1,1,71.725,39.753,32.008,32.008,0,0,1,39.753,71.725Z" transform="translate(-5 -5)"/></svg>