<svg xmlns="http://www.w3.org/2000/svg" width="42.03" height="40.67" viewBox="0 0 42.03 40.67"><defs><style>.a{fill:#008bcf;}</style></defs><path class="a" d="M42.539,215.367a9.418,9.418,0,0,0-9.407,9.407,9.323,9.323,0,0,0,1.919,5.7.613.613,0,1,0,.975-.742,8.109,8.109,0,0,1-1.669-4.953,8.181,8.181,0,1,1,3.289,6.558.613.613,0,0,0-.733.981,9.408,9.408,0,1,0,5.627-16.947Z" transform="translate(-30.426 -198.247)"/><path class="a" d="M107.389,285.629a4,4,0,1,0-4,4A4,4,0,0,0,107.389,285.629Zm-6.765,0a2.77,2.77,0,1,1,2.77,2.77A2.773,2.773,0,0,1,100.624,285.629Z" transform="translate(-91.23 -259.167)"/><path class="a" d="M41.414,28.81a.616.616,0,0,0,.616-.616V23.857a3.339,3.339,0,0,0-3.336-3.336H37.95V19.074A1.274,1.274,0,0,0,36.678,17.8H32.551a1.274,1.274,0,0,0-1.272,1.272v1.448H29.79V19.074A1.274,1.274,0,0,0,28.518,17.8H24.391a1.274,1.274,0,0,0-1.272,1.272v1.448H10.751V19.262l22.3-7.8a1.974,1.974,0,1,0-.408-1.2c0,.013,0,.026,0,.039L10.309,18.112a1.266,1.266,0,0,0-.83-.311H5.352A1.274,1.274,0,0,0,4.08,19.074v1.448H3.336A3.339,3.339,0,0,0,0,23.857V45.616a3.339,3.339,0,0,0,3.336,3.336H38.694a3.339,3.339,0,0,0,3.336-3.336V30.657a.616.616,0,0,0-1.231,0v14.96a2.107,2.107,0,0,1-2.1,2.1H24.35V21.753H38.694a2.107,2.107,0,0,1,2.1,2.1v4.337A.616.616,0,0,0,41.414,28.81Zm-6.8-19.3a.744.744,0,1,1-.744.744A.745.745,0,0,1,34.614,9.513Zm-29.3,9.561a.041.041,0,0,1,.041-.041H9.479a.04.04,0,0,1,.025.009v0c0,.012.01.023.015.034v1.441H5.311ZM3.336,47.721a2.107,2.107,0,0,1-2.1-2.1V23.857a2.107,2.107,0,0,1,2.1-2.1H23.119V47.721Zm21.015-27.2V19.074a.041.041,0,0,1,.041-.041h4.126a.041.041,0,0,1,.041.041v1.448Zm8.16,0V19.074a.041.041,0,0,1,.041-.041h4.126a.041.041,0,0,1,.041.041v1.448Z" transform="translate(0 -8.282)"/><path class="a" d="M328.17,191.782a1.267,1.267,0,0,0-1.266-1.266H316.033a1.267,1.267,0,0,0-1.266,1.266v2.752a1.267,1.267,0,0,0,1.266,1.266H326.9a1.267,1.267,0,0,0,1.266-1.266Zm-1.225,2.752a.041.041,0,0,1-.041.041H316.033a.041.041,0,0,1-.041-.041v-2.752a.041.041,0,0,1,.041-.041H326.9a.041.041,0,0,1,.041.041Z" transform="translate(-288.846 -175.545)"/><path class="a" d="M317.409,278.633a2.642,2.642,0,1,0-2.642-2.642A2.645,2.645,0,0,0,317.409,278.633Zm0-4.059a1.417,1.417,0,1,1-1.417,1.417A1.419,1.419,0,0,1,317.409,274.574Z" transform="translate(-288.909 -251.573)"/><path class="a" d="M416.81,273.35a2.642,2.642,0,1,0,2.642,2.642A2.645,2.645,0,0,0,416.81,273.35Zm0,4.059a1.417,1.417,0,1,1,1.417-1.417A1.419,1.419,0,0,1,416.81,277.409Z" transform="translate(-380.129 -251.574)"/><path class="a" d="M327.557,356.184H315.38a.613.613,0,1,0,0,1.225h12.177a.613.613,0,0,0,0-1.225Z" transform="translate(-288.846 -327.62)"/><path class="a" d="M327.557,389.316H315.38a.613.613,0,0,0,0,1.225h12.177a.613.613,0,0,0,0-1.225Z" transform="translate(-288.846 -358.032)"/><path class="a" d="M327.557,422.45H315.38a.613.613,0,0,0,0,1.225h12.177a.613.613,0,0,0,0-1.225Z" transform="translate(-288.846 -388.417)"/></svg>