<svg xmlns="http://www.w3.org/2000/svg" width="19.714" height="23" viewBox="0 0 19.714 23"><defs><style>.a{fill:#0082cc;}</style></defs><g transform="translate(-4 -2)"><path  d="M23.071,2H16V3.643h7.071a.8.8,0,0,1,.786.821V22.536a.8.8,0,0,1-.786.821H16V25h7.071a2.413,2.413,0,0,0,2.357-2.464V4.464A2.412,2.412,0,0,0,23.071,2Z" transform="translate(-1.714 0)"/><path  d="M13.429,19.653l3.929-3.929a1.571,1.571,0,0,0,0-2.216L13.429,9.58,12.289,10.7l3.143,3.143H4V15.41H15.464l-3.143,3.143Z" transform="translate(0 -1.125)"/></g></svg>