<svg xmlns="http://www.w3.org/2000/svg" width="26.463" height="22.378" viewBox="0 0 26.463 22.378"><defs><style>.a{fill:#fff;}</style></defs><g transform="translate(-1.324 -2.1)"><g transform="translate(1.324 2.1)"><path class="a" d="M14.548,286.4a18.585,18.585,0,0,0-11.96,4.838,4.086,4.086,0,0,0-.011,5.9,4.239,4.239,0,0,0,1.97,1.086.7.7,0,0,0,.581-.119l3.48-2.633a.7.7,0,0,0,.278-.555v-2.1a13.184,13.184,0,0,1,5.657-1.528,13.128,13.128,0,0,1,5.656,1.522v2.118a.7.7,0,0,0,.279.555l3.475,2.623a.7.7,0,0,0,.586.118,4.24,4.24,0,0,0,1.97-1.086h.006a4.034,4.034,0,0,0-.037-5.918A18.483,18.483,0,0,0,14.548,286.4Zm0,1.393a17.112,17.112,0,0,1,11.024,4.484,2.634,2.634,0,0,1-.035,3.861,2.851,2.851,0,0,1-1.08.592l-2.864-2.155v-2.283a.7.7,0,0,0-.366-.612,14.484,14.484,0,0,0-6.684-1.789,14.524,14.524,0,0,0-6.684,1.795.7.7,0,0,0-.366.612v2.272l-2.864,2.166a2.852,2.852,0,0,1-1.08-.6,2.664,2.664,0,0,1-.01-3.878,17.468,17.468,0,0,1,11.009-4.468Zm-3.476,5.574a1.406,1.406,0,0,0-1.393,1.393v1.748l-4.454,3.43A4.512,4.512,0,0,0,3.636,301.7a3.292,3.292,0,0,0-.227,1.419v4.263A1.407,1.407,0,0,0,4.8,308.778h19.5a1.407,1.407,0,0,0,1.395-1.393v-4.263a3.223,3.223,0,0,0-.248-1.41A4.846,4.846,0,0,0,23.9,299.95l-4.469-3.441v-1.748a1.406,1.406,0,0,0-1.393-1.393H16.646a1.406,1.406,0,0,0-1.393,1.393v1.395H13.858v-1.395a1.406,1.406,0,0,0-1.393-1.393Zm0,1.393h1.393v2.088a.7.7,0,0,0,.694.7h2.788a.7.7,0,0,0,.7-.7v-2.088h1.388v2.088a.7.7,0,0,0,.273.555l4.74,3.65a3.54,3.54,0,0,1,1.137,1.23,1.787,1.787,0,0,1,.122.838v4.263H4.8v-4.263a1.948,1.948,0,0,1,.113-.864,3.144,3.144,0,0,1,1.125-1.193l.016-.01L10.8,297.4a.7.7,0,0,0,.272-.555Zm3.48,4.181a3.481,3.481,0,1,0,3.482,3.482,3.49,3.49,0,0,0-3.482-3.482Zm0,1.393a2.088,2.088,0,1,1-2.087,2.088,2.082,2.082,0,0,1,2.087-2.088Z" transform="translate(-1.324 -286.4)"/></g></g></svg>