<svg xmlns="http://www.w3.org/2000/svg" width="19.018" height="19.018" viewBox="0 0 19.018 19.018"><defs><style>.a{fill:#008bcf;}</style></defs><g transform="translate(-15.691 -21.691)"><g transform="translate(15.691 21.691)"><path class="a" d="M22.093,22.608H14.175a.515.515,0,0,1-.515-.515v-5.1a3.35,3.35,0,0,1,3.334-3.334h5.1a.515.515,0,0,1,.515.515v7.918A.515.515,0,0,1,22.093,22.608Zm-7.4-1.031h6.887V14.691H16.994a2.319,2.319,0,0,0-2.3,2.3Z" transform="translate(-13.66 -13.66)"/><path class="a" d="M60.043,22.608H52.125a.515.515,0,0,1-.515-.515V14.175a.515.515,0,0,1,.515-.515h5.1a3.35,3.35,0,0,1,3.334,3.334v5.1A.515.515,0,0,1,60.043,22.608Zm-7.4-1.031h6.887V16.994a2.319,2.319,0,0,0-2.3-2.3H52.641Z" transform="translate(-41.541 -13.66)"/><path class="a" d="M22.093,60.558h-5.1a3.35,3.35,0,0,1-3.334-3.334v-5.1a.515.515,0,0,1,.515-.515h7.918a.515.515,0,0,1,.515.515v7.918A.515.515,0,0,1,22.093,60.558Zm-7.4-7.918v4.584a2.319,2.319,0,0,0,2.3,2.3h4.584V52.641Z" transform="translate(-13.66 -41.541)"/><path class="a" d="M56.083,60.551a4.475,4.475,0,1,1,4.468-4.468A4.475,4.475,0,0,1,56.083,60.551Zm0-7.918a3.445,3.445,0,1,0,3.437,3.45,3.445,3.445,0,0,0-3.437-3.45Z" transform="translate(-41.533 -41.533)"/></g></g></svg>