<svg xmlns="http://www.w3.org/2000/svg" width="43.718" height="32.275" viewBox="0 0 43.718 32.275"><defs><style>.a{fill:#403d3e;}</style></defs><g transform="translate(-8.536 -17.175)"><g transform="translate(9.6 20.175)"><path class="a" d="M53.318,36.292a9.6,9.6,0,0,1-2.81,6.863,1.388,1.388,0,0,1-1.081.432,1.716,1.716,0,0,1-1.081-.432,1.468,1.468,0,0,1,0-2.108,6.8,6.8,0,0,0-4.864-11.564h-16.7l3.837,3.837a1.468,1.468,0,0,1,0,2.108,1.607,1.607,0,0,1-1.081.432,1.716,1.716,0,0,1-1.081-.432L22.083,29.1c-.054-.054-.108-.162-.162-.216a.167.167,0,0,1-.054-.108.189.189,0,0,0-.054-.108c0-.054-.054-.108-.054-.162s0-.054-.054-.108a1.11,1.11,0,0,1,0-.594v-.054c0-.054.054-.162.054-.216s.054-.054.054-.108c.054-.054.054-.108.108-.162,0-.054.054-.054.108-.108l.108-.108,6.431-6.431a1.49,1.49,0,0,1,2.108,2.108l-3.837,3.837h16.7A9.7,9.7,0,0,1,53.318,36.292ZM41.051,45.209c0-.054.054-.054.054-.108a.325.325,0,0,0,.054-.216V44.83a1.11,1.11,0,0,0,0-.594c0-.054,0-.054-.054-.108,0-.054-.054-.108-.054-.162s-.054-.108-.108-.162c0-.054-.054-.054-.054-.108a.422.422,0,0,0-.216-.216L34.35,37.1a1.49,1.49,0,0,0-2.108,2.108l3.837,3.837h-16.7a6.8,6.8,0,0,1-4.864-11.564,1.49,1.49,0,0,0-2.108-2.108A9.6,9.6,0,0,0,9.6,36.238a9.836,9.836,0,0,0,9.835,9.835h16.7L32.3,49.91a1.468,1.468,0,0,0,0,2.108,1.607,1.607,0,0,0,1.081.432,1.716,1.716,0,0,0,1.081-.432l6.431-6.431c.054-.054.054-.108.108-.108,0-.054.054-.054.054-.108C41,45.371,41.051,45.317,41.051,45.209Z" transform="translate(-10.664 -23.175)"/></g></g></svg>