<svg xmlns="http://www.w3.org/2000/svg" width="70" height="70" viewBox="0 0 70 70"><defs><style>.a{fill:#fff;}</style></defs><path class="a" d="M29,34.871h1.353a4.521,4.521,0,0,0,4.516-4.516H48.51a7.893,7.893,0,0,0,15.626,0h4.606A2.26,2.26,0,0,0,71,28.1V24.849a2.143,2.143,0,0,0-.069-.546l-3.2-12.8a7.889,7.889,0,0,0-7.666-5.987H48.419V4.387A3.391,3.391,0,0,0,45.032,1H22.452a3.391,3.391,0,0,0-3.387,3.387V5.72A13.558,13.558,0,0,0,7.774,19.065v11.29a4.521,4.521,0,0,0,4.516,4.516h1.353a8.635,8.635,0,0,0,3.164,3.322v1.472L8.369,42.074A10.206,10.206,0,0,0,1,51.845v6.736a7.91,7.91,0,0,0,6.774,7.813V71H49.548a3.365,3.365,0,0,0,2.258-.881A3.36,3.36,0,0,0,54.065,71H67.613A3.391,3.391,0,0,0,71,67.613V58.581a3.391,3.391,0,0,0-3.387-3.387H66.276a3.349,3.349,0,0,0,.208-1.129V45.032A3.391,3.391,0,0,0,63.1,41.645H49.548a3.391,3.391,0,0,0-3.387,3.387v9.032a3.349,3.349,0,0,0,.208,1.129H41.645V51.845a10.2,10.2,0,0,0-7.369-9.771l-8.437-2.409V38.193A8.635,8.635,0,0,0,29,34.871ZM12.29,25.839a4.47,4.47,0,0,0-2.258.628V21.861a12.553,12.553,0,0,0,2.258,1.477Zm-.726-5.645H31.082a10.207,10.207,0,0,1-6.371,2.258H17.937A10.206,10.206,0,0,1,11.564,20.194Zm15.368-2.258A19.005,19.005,0,0,0,24.084,8.13a11.3,11.3,0,0,1,8.461,9.806Zm-5.61-9.727c1.09,1.217,3.1,4.207,3.354,9.727H17.969C18.218,12.416,20.233,9.426,21.323,8.209Zm11.29,13.653v4.605a4.459,4.459,0,0,0-2.258-.629v-2.5A12.487,12.487,0,0,0,32.613,21.862ZM30.355,32.613h-.446a12.75,12.75,0,0,0,.446-3.387V28.1a2.258,2.258,0,1,1,0,4.516Zm4.516-6.774H49.193A7.833,7.833,0,0,0,48.51,28.1H34.871Zm21.452,9.032a5.645,5.645,0,1,1,5.645-5.645A5.652,5.652,0,0,1,56.323,34.871ZM64.135,28.1a7.832,7.832,0,0,0-.683-2.258h5.29V28.1ZM60.065,7.774a5.638,5.638,0,0,1,5.477,4.276l2.882,11.531H61.842a7.876,7.876,0,0,0-11.04,0H48.419V7.774ZM21.323,4.387a1.129,1.129,0,0,1,1.129-1.129H45.032a1.129,1.129,0,0,1,1.129,1.129V23.581H34.871V19.065A13.563,13.563,0,0,0,21.323,5.516ZM18.562,8.13a19.013,19.013,0,0,0-2.849,9.806H10.1A11.3,11.3,0,0,1,18.562,8.13ZM12.29,32.613a2.258,2.258,0,1,1,0-4.516v1.129a12.749,12.749,0,0,0,.446,3.387Zm2.258-3.387V24.214a12.32,12.32,0,0,0,3.387.5H24.71a12.32,12.32,0,0,0,3.387-.5v5.012c0,4.8-2.659,7.9-6.774,7.9S14.548,34.026,14.548,29.226Zm2.864,12.614,2.538,4.229L17.5,49.127,16.34,42.145Zm7.884,11.1H17.348l3.974-4.967Zm2.8,15.806H14.548V66.484h6.774a4.516,4.516,0,1,0,0-9.032H14.548V55.194H28.1ZM21.323,59.71a2.258,2.258,0,1,1,0,4.516H19.065V59.71ZM3.258,58.581V51.845a7.936,7.936,0,0,1,5.731-7.6l5.166-1.476L15.85,52.935H12.29v4.516H10.305c-.091,0-.182.021-.273.027V51.806H7.774v6.426a4.4,4.4,0,0,0-.662.542L5.847,60.04l1.6,1.6,1.266-1.266a2.275,2.275,0,0,1,1.6-.662h6.5v4.516H8.9A5.652,5.652,0,0,1,3.258,58.581Zm6.774,7.9H12.29v2.258H10.032Zm20.323,2.258V66.484h2.258v2.258Zm19.194,0H34.871V66.394a7.915,7.915,0,0,0,6-4.426h5.29V57.452h3.387a1.129,1.129,0,0,1,1.129,1.129v9.032A1.129,1.129,0,0,1,49.548,68.742ZM68.742,58.581v9.032a1.129,1.129,0,0,1-1.129,1.129H54.065a1.129,1.129,0,0,1-1.129-1.129V58.581a1.129,1.129,0,0,1,1.129-1.129h3.387v4.516h6.774V57.452h3.387A1.129,1.129,0,0,1,68.742,58.581ZM59.71,57.452h2.258V59.71H59.71ZM55.194,43.9h2.258v2.258H55.194ZM48.419,54.065V45.032A1.129,1.129,0,0,1,49.548,43.9h3.387v4.516H59.71V43.9H63.1a1.129,1.129,0,0,1,1.129,1.129v9.032A1.129,1.129,0,0,1,63.1,55.194H49.548A1.129,1.129,0,0,1,48.419,54.065ZM43.9,57.452V59.71H41.555a7.932,7.932,0,0,0,.09-1.129V57.452Zm-4.516-5.607v6.736a5.652,5.652,0,0,1-5.645,5.645H30.355V59.71H32.34a2.275,2.275,0,0,1,1.6.662L35.2,61.637l1.6-1.6-1.266-1.266a4.472,4.472,0,0,0-.662-.542V51.806H32.613v5.672c-.091-.006-.182-.027-.273-.027H30.355V52.935H26.8L28.49,42.77l5.166,1.476A7.939,7.939,0,0,1,39.387,51.845Zm-13.082-9.7-1.164,6.982-2.447-3.059,2.538-4.229ZM23.581,40.2l-2.258,3.764L19.065,40.2v-1.1a9.209,9.209,0,0,0,4.516,0Z" transform="translate(-1 -1)"/></svg>