<svg xmlns="http://www.w3.org/2000/svg" width="56" height="56" viewBox="0 0 56 56"><defs><style>.a{fill:#008bcf;}</style></defs><g transform="translate(0)"><path class="a" d="M46.047,7.319V5.168a2.163,2.163,0,0,1,2.117-2.182H48.2A2.162,2.162,0,0,1,50.35,5.138V7.689a6.455,6.455,0,0,1,3.933,3.933h2.552a2.152,2.152,0,0,1,0,4.3H54.653v4.3h2.182a2.152,2.152,0,0,1,0,4.3H54.653v4.3h2.182a2.152,2.152,0,0,1,0,4.3H54.653v4.3h2.182a2.152,2.152,0,1,1,0,4.3H54.653v4.3h2.182a2.152,2.152,0,0,1,0,4.3H54.283a6.455,6.455,0,0,1-3.933,3.933v2.552a2.152,2.152,0,0,1-4.3,0V54.653h-4.3v2.182a2.152,2.152,0,0,1-4.3,0V54.653h-4.3v2.182a2.152,2.152,0,0,1-4.3,0V54.653h-4.3v2.182a2.152,2.152,0,0,1-4.3,0V54.653h-4.3v2.182a2.152,2.152,0,0,1-4.3,0V54.283A6.455,6.455,0,0,1,7.689,50.35H5.138a2.152,2.152,0,0,1,0-4.3H7.319v-4.3H5.138a2.152,2.152,0,1,1,0-4.3H7.319v-4.3H5.138a2.152,2.152,0,0,1,0-4.3H7.319v-4.3H5.138a2.152,2.152,0,1,1,0-4.3H7.319v-4.3H5.138a2.152,2.152,0,1,1,0-4.3H7.689a6.455,6.455,0,0,1,3.933-3.933V5.168a2.163,2.163,0,0,1,2.117-2.182h.034a2.162,2.162,0,0,1,2.152,2.152V7.319h4.3V5.168a2.163,2.163,0,0,1,2.117-2.182h.034a2.162,2.162,0,0,1,2.152,2.152V7.319h4.3V5.168a2.163,2.163,0,0,1,2.117-2.182h.034a2.162,2.162,0,0,1,2.152,2.152V9.109a2.235,2.235,0,0,1,.03.361,2.212,2.212,0,0,1-2.182,2.182,2.235,2.235,0,0,1-.361-.03H13.774a2.152,2.152,0,0,0-2.152,2.152V48.2a2.152,2.152,0,0,0,2.152,2.152H48.2A2.152,2.152,0,0,0,50.35,48.2V13.774A2.152,2.152,0,0,0,48.2,11.622H39.954a2.235,2.235,0,0,1-.361.03A2.212,2.212,0,0,1,37.41,9.471a2.234,2.234,0,0,1,.03-.361V5.168a2.163,2.163,0,0,1,2.117-2.182h.034a2.162,2.162,0,0,1,2.152,2.152V7.319h4.3ZM43.9,41.744A2.152,2.152,0,1,1,41.744,43.9,2.152,2.152,0,0,1,43.9,41.744Zm-25.818,0A2.152,2.152,0,1,1,15.925,43.9,2.152,2.152,0,0,1,18.077,41.744ZM37.441,22.38a2.161,2.161,0,0,1,2.152,2.152V37.441a2.161,2.161,0,0,1-2.152,2.152H24.531a2.161,2.161,0,0,1-2.152-2.152V24.531a2.161,2.161,0,0,1,2.152-2.152ZM35.289,35.289V26.683H26.683v8.606ZM18.077,15.925a2.152,2.152,0,1,1-2.152,2.152A2.152,2.152,0,0,1,18.077,15.925Zm25.818,0a2.152,2.152,0,1,1-2.152,2.152A2.152,2.152,0,0,1,43.9,15.925Z" transform="translate(-2.986 -2.986)"/></g></svg>