<svg xmlns="http://www.w3.org/2000/svg" width="55.385" height="36.482" viewBox="0 0 55.385 36.482"><defs><style>.a{fill:#008bcf;}</style></defs><path class="a" d="M51.237,87.371H41.431a.811.811,0,1,0,0,1.623h9.806a2.528,2.528,0,0,1,2.526,2.526v28.186a2.528,2.528,0,0,1-2.526,2.526H4.148a2.528,2.528,0,0,1-2.526-2.526V91.519a2.528,2.528,0,0,1,2.526-2.526H37.464a.811.811,0,0,0,0-1.623H4.148A4.153,4.153,0,0,0,0,91.519v28.186a4.153,4.153,0,0,0,4.148,4.148H51.237a4.153,4.153,0,0,0,4.148-4.148V91.519a4.153,4.153,0,0,0-4.148-4.148Z" transform="translate(0 -87.371)"/><path class="a" d="M64.723,132.852a9.5,9.5,0,0,0-17.937,0,3,3,0,0,0,2.812,3.942H61.911A3,3,0,0,0,64.723,132.852ZM63.017,134.6a1.342,1.342,0,0,1-1.106.572h-4.2l2.343-2.343a.811.811,0,0,0-1.147-1.147l-3.491,3.491H49.6a1.366,1.366,0,0,1-1.28-1.784,7.878,7.878,0,0,1,14.873,0A1.319,1.319,0,0,1,63.017,134.6Z" transform="translate(-41.581 -122.255)"/><path class="a" d="M64.34,248.3a2.923,2.923,0,0,0,.383-2.686,9.5,9.5,0,0,0-13.969-4.945.811.811,0,1,0,.855,1.379,7.879,7.879,0,0,1,11.582,4.1,1.367,1.367,0,0,1-1.28,1.784h-5.82L53.2,245.041a.811.811,0,0,0-1.147,1.147l1.741,1.741H49.6a1.366,1.366,0,0,1-1.28-1.784,7.856,7.856,0,0,1,.8-1.645.811.811,0,0,0-1.366-.875,9.486,9.486,0,0,0-.967,1.986,3,3,0,0,0,2.812,3.942H61.911A2.985,2.985,0,0,0,64.34,248.3Z" transform="translate(-41.581 -222.815)"/><path class="a" d="M50.65,356.379v1.876a.811.811,0,1,0,1.623,0v-1.876a.811.811,0,1,0-1.623,0Z" transform="translate(-45.171 -326.556)"/><path class="a" d="M94.617,356.379v1.876a.811.811,0,1,0,1.623,0v-1.876a.811.811,0,1,0-1.623,0Z" transform="translate(-84.382 -326.556)"/><path class="a" d="M138.583,356.379v1.876a.811.811,0,1,0,1.623,0v-1.876a.811.811,0,1,0-1.623,0Z" transform="translate(-123.592 -326.556)"/><path class="a" d="M182.55,356.379v1.876a.811.811,0,1,0,1.623,0v-1.876a.811.811,0,1,0-1.623,0Z" transform="translate(-162.803 -326.556)"/><path class="a" d="M227.328,355.568a.811.811,0,0,0-.811.811v1.876a.811.811,0,0,0,1.623,0v-1.876A.811.811,0,0,0,227.328,355.568Z" transform="translate(-202.014 -326.556)"/><path class="a" d="M271.294,359.067a.811.811,0,0,0,.811-.811v-1.876a.811.811,0,1,0-1.623,0v1.876A.811.811,0,0,0,271.294,359.067Z" transform="translate(-241.224 -326.556)"/><path class="a" d="M314.45,356.379v1.876a.811.811,0,1,0,1.623,0v-1.876a.811.811,0,1,0-1.623,0Z" transform="translate(-280.435 -326.556)"/><path class="a" d="M359.227,359.067a.811.811,0,0,0,.811-.811v-1.876a.811.811,0,1,0-1.623,0v1.876A.811.811,0,0,0,359.227,359.067Z" transform="translate(-319.645 -326.556)"/><path class="a" d="M402.383,356.379v1.876a.811.811,0,1,0,1.623,0v-1.876a.811.811,0,1,0-1.623,0Z" transform="translate(-358.856 -326.556)"/><path class="a" d="M446.35,356.379v1.876a.811.811,0,1,0,1.623,0v-1.876a.811.811,0,1,0-1.623,0Z" transform="translate(-398.067 -326.556)"/><path class="a" d="M360.4,153.5h8.164a1.989,1.989,0,0,0,1.986-1.986V147.9a.811.811,0,1,0-1.623,0v3.608a.364.364,0,0,1-.364.364H360.4a.364.364,0,0,1-.364-.364V133.525a.364.364,0,0,1,.364-.364h8.164a.364.364,0,0,1,.364.364v10.5a.811.811,0,0,0,1.623,0v-10.5a1.989,1.989,0,0,0-1.986-1.987H360.4a1.989,1.989,0,0,0-1.987,1.987V151.51A1.989,1.989,0,0,0,360.4,153.5Z" transform="translate(-319.645 -126.76)"/><path class="a" d="M235.932,153.5a.811.811,0,0,0,.811-.811v-4.417a2.433,2.433,0,0,0,0-4.589v-11.33a.811.811,0,1,0-1.623,0v11.33a2.433,2.433,0,0,0,0,4.589v4.417A.811.811,0,0,0,235.932,153.5Zm0-8.334a.811.811,0,1,1-.811.811A.812.812,0,0,1,235.932,145.162Z" transform="translate(-208.24 -126.76)"/><path class="a" d="M291.7,136.571v-4.222a.811.811,0,1,0-1.623,0v4.222a2.433,2.433,0,0,0,0,4.589v11.526a.811.811,0,1,0,1.623,0V141.16a2.433,2.433,0,0,0,0-4.589Zm-.811,3.106a.811.811,0,1,1,.811-.811A.812.812,0,0,1,290.891,139.677Z" transform="translate(-257.253 -126.76)"/><path class="a" d="M398.842,173.12a.811.811,0,0,0-.811-.811h-2.7a.811.811,0,0,0-.811.811v2.7a.811.811,0,0,0,.811.811h2.7a.811.811,0,0,0,.811-.811Zm-1.623,1.893h-1.082v-1.082h1.082Z" transform="translate(-351.839 -163.121)"/><path class="a" d="M398.031,225.535h-2.7a.811.811,0,0,0-.811.811V232.8a.811.811,0,0,0,.811.811h2.7a.811.811,0,0,0,.811-.811v-6.449A.811.811,0,0,0,398.031,225.535Zm-.811,6.449h-1.082v-4.827h1.082Z" transform="translate(-351.839 -210.589)"/></svg>