<?xml version="1.0" encoding="utf-8"?>
<!-- Generator: Adobe Illustrator 25.0.1, SVG Export Plug-In . SVG Version: 6.00 Build 0)  -->
<svg version="1.1" id="Capa_1" xmlns="http://www.w3.org/2000/svg" xmlns:xlink="http://www.w3.org/1999/xlink" x="0px" y="0px"
	 viewBox="0 0 496 496" style="enable-background:new 0 0 496 496;" xml:space="preserve">
<style type="text/css">
	.st0{fill:#0082CC;}
</style>
<g>
	<g>
		<path class="st0" d="M264,336h-32c-8.8,0-16-7.2-16-16s7.2-16,16-16h32c8.8,0,16,7.2,16,16h16c0-17.6-14.4-32-32-32h-8v-16h-16v16
			h-8c-17.6,0-32,14.4-32,32s14.4,32,32,32h32c8.8,0,16,7.2,16,16s-7.2,16-16,16h-32c-8.8,0-16-7.2-16-16h-16c0,17.6,14.4,32,32,32
			h8v16h16v-16h8c17.6,0,32-14.4,32-32S281.6,336,264,336z"/>
	</g>
</g>
<g>
	<g>
		<path class="st0" d="M360,16c-44.8,0-86.8,22.4-112,59c-24.6-35.6-65.6-59-112-59C61,16,0,77,0,152c0,71.1,54.9,129.5,124.5,135.4
			c-7.9,17.3-12.5,36.4-12.5,56.6c0,75,61,136,136,136c28.4,0,55.7-8.8,78.9-25.4l-9.3-13C297.1,456.3,273.1,464,248,464
			c-66.2,0-120-53.8-120-120s53.8-120,120-120s120,53.8,120,120c0,28.5-10.2,56.1-28.8,77.8l12.2,10.4c21-24.6,32.6-56,32.6-88.2
			c0-20.2-4.5-39.3-12.5-56.5c24.2-2,47.3-10.5,67.4-24.9l-9.3-13c-19.6,14-42.6,21.7-66.5,22.3c-22.1-35.2-59.9-59.6-103.5-63.3
			c8.1-17.7,12.4-37,12.4-56.6c0-22.2-5.5-43.1-14.9-61.6C278.7,54.3,317.9,32,360,32c66.2,0,120,53.8,120,120
			c0,28.5-10.2,56.1-28.8,77.8l12.2,10.4c21-24.6,32.6-56,32.6-88.2C496,77,435,16,360,16z M241.9,208.3c-45.9,2-85.9,26.9-109,63.5
			C68.2,270.2,16,217.1,16,152C16,85.8,69.8,32,136,32s120,53.8,120,120C256,171.7,251.1,191,241.9,208.3z"/>
	</g>
</g>
<g>
	<g>
		<path class="st0" d="M360,208c-13.2,0-24-10.8-24-24v-8h16v-16h-16v-16h16v-16h-16v-8c0-13.2,10.8-24,24-24s24,10.8,24,24h16
			c0-22.1-17.9-40-40-40s-40,17.9-40,40v8h-16v16h16v16h-16v16h16v8c0,22.1,17.9,40,40,40s40-17.9,40-40h-16
			C384,197.2,373.2,208,360,208z"/>
	</g>
</g>
<g>
	<g>
		<polygon class="st0" points="144,139 190.1,85.2 177.9,74.8 136,123.7 94.1,74.8 81.9,85.2 128,139 128,160 112,160 112,176 
			128,176 128,192 112,192 112,208 128,208 128,216 144,216 144,208 160,208 160,192 144,192 144,176 160,176 160,160 144,160 		"/>
	</g>
</g>
</svg>
