<?xml version="1.0" encoding="utf-8"?>
<!-- Generator: Adobe Illustrator 25.0.1, SVG Export Plug-In . SVG Version: 6.00 Build 0)  -->
<svg version="1.1" id="Capa_1" xmlns="http://www.w3.org/2000/svg" xmlns:xlink="http://www.w3.org/1999/xlink" x="0px" y="0px"
	 viewBox="0 0 512 512" style="enable-background:new 0 0 512 512;" xml:space="preserve">
<style type="text/css">
	.st0{fill:#0082CC;}
</style>
<g>
	<g>
		<path class="st0" d="M230.4,375.5c-37.6,0-68.3,30.6-68.3,68.3s30.6,68.3,68.3,68.3s68.3-30.6,68.3-68.3S268,375.5,230.4,375.5z
			 M230.4,494.9c-28.2,0-51.2-23-51.2-51.2s23-51.2,51.2-51.2s51.2,23,51.2,51.2S258.6,494.9,230.4,494.9z"/>
	</g>
</g>
<g>
	<g>
		<path class="st0" d="M51.2,409.6C23,409.6,0,432.6,0,460.8S23,512,51.2,512s51.2-23,51.2-51.2S79.4,409.6,51.2,409.6z M51.2,494.9
			c-18.8,0-34.1-15.3-34.1-34.1c0-18.8,15.3-34.1,34.1-34.1s34.1,15.3,34.1,34.1C85.3,479.6,70,494.9,51.2,494.9z"/>
	</g>
</g>
<g>
	<g>
		<path class="st0" d="M503.5,264.5H358.4c-4.7,0-8.5,3.8-8.5,8.5v136.5c0,4.7,3.8,8.5,8.5,8.5h145.1c4.7,0,8.5-3.8,8.5-8.5V273.1
			C512,268.3,508.2,264.5,503.5,264.5z M494.9,401.1h-128V281.6h128V401.1z"/>
	</g>
</g>
<g>
	<g>
		<path class="st0" d="M452.3,264.5h-42.7c-4.7,0-8.5,3.8-8.5,8.5v51.2c0,4.7,3.8,8.5,8.5,8.5h42.7c4.7,0,8.5-3.8,8.5-8.5v-51.2
			C460.8,268.3,457,264.5,452.3,264.5z M443.7,315.7h-25.6v-34.1h25.6V315.7z"/>
	</g>
</g>
<g>
	<g>
		<rect x="85.3" y="477.9" class="st0" width="102.4" height="17.1"/>
	</g>
</g>
<g>
	<g>
		<path class="st0" d="M284.1,335.3l-40.2,40.2h-28.2l-66.2-41.4c-1.4-0.8-2.9-1.3-4.5-1.3H8.5c-4.7,0-8.5,3.8-8.5,8.5v119.5h17.1
			V349.9h125.6l66.2,41.4c1.4,0.8,2.9,1.3,4.5,1.3h34.1c2.3,0,4.4-0.9,6-2.5l42.7-42.7L284.1,335.3z"/>
	</g>
</g>
<g>
	<g>
		<path class="st0" d="M297.8,311.9L211,138.4c-5.8-11.6-17.5-18.9-30.5-18.9H25.6C11.5,119.5,0,131,0,145.1v196.3h17.1V145.1
			c0-4.7,3.8-8.5,8.5-8.5h154.9c6.5,0,12.3,3.6,15.2,9.4l85.9,171.8v126h17.1v-128C298.7,314.4,298.4,313.1,297.8,311.9z"/>
	</g>
</g>
<g>
	<g>
		<path class="st0" d="M230.4,418.1c-14.1,0-25.6,11.5-25.6,25.6s11.5,25.6,25.6,25.6s25.6-11.5,25.6-25.6S244.5,418.1,230.4,418.1z
			 M230.4,452.3c-4.7,0-8.5-3.8-8.5-8.5s3.8-8.5,8.5-8.5c4.7,0,8.5,3.8,8.5,8.5S235.1,452.3,230.4,452.3z"/>
	</g>
</g>
<g>
	<g>
		<path class="st0" d="M145.1,298.7H85.3v-68.3c0-14.1-11.5-25.6-25.6-25.6s-25.6,11.5-25.6,25.6v110.9h17.1V230.4
			c0-4.7,3.8-8.5,8.5-8.5s8.5,3.8,8.5,8.5v76.8c0,4.7,3.8,8.5,8.5,8.5h68.3c4.7,0,8.5,3.8,8.5,8.5s-3.8,8.5-8.5,8.5h-8.5v17.1h8.5
			c14.1,0,25.6-11.5,25.6-25.6S159.2,298.7,145.1,298.7z"/>
	</g>
</g>
<g>
	<g>
		
			<rect x="161.8" y="251.7" transform="matrix(0.7071 -0.7071 0.7071 0.7071 -127.8081 211.9857)" class="st0" width="60.3" height="17.1"/>
	</g>
</g>
<g>
	<g>
		
			<rect x="230.4" y="246.9" transform="matrix(0.7071 -0.7071 0.7071 0.7071 -147.2402 258.9153)" class="st0" width="17.1" height="120.7"/>
	</g>
</g>
<g>
	<g>
		<path class="st0" d="M324.3,0h-34.1c-4.7,0-8.5,3.8-8.5,8.5v477.9c0,4.7,3.8,8.5,8.5,8.5h34.1c4.7,0,8.5-3.8,8.5-8.5V8.5
			C332.8,3.8,329,0,324.3,0z M315.7,477.9h-17.1V17.1h17.1V477.9z"/>
	</g>
</g>
<g>
	<g>
		<rect x="324.3" y="435.2" class="st0" width="187.7" height="17.1"/>
	</g>
</g>
<g>
	<g>
		<rect x="42.7" y="452.3" class="st0" width="17.1" height="17.1"/>
	</g>
</g>
</svg>
