<?xml version="1.0" encoding="utf-8"?>
<svg version="1.1" id="Layer_1" x="0px" y="0px" viewBox="0 0 98.7 90" style="enable-background:new 0 0 98.7 90;" xmlns="http://www.w3.org/2000/svg">
  <style type="text/css">
	.st0{fill:#4A873F;}
	.st1{fill:#76B143;}
	.st2{fill:#76B144;}
	.st3{fill:#4B8840;}
</style>
  <path class="st0" d="M74.2,85.2c-5.1-8.1-10.2-16.1-15.1-24c8.8-25.2-4.5-45.1-42.5-48.6c4-7.4,9.8-11.7,18-12.5 C36.5-0.1,38.3,0,40.1,0c19.3,0,38.6,0,58.6,0c0,19.3,0,38.4,0,57.5c0,3.6,0,7.4-0.8,10.9C95.3,79.4,86.1,85.9,74.2,85.2z" style="fill: rgb(227, 32, 32);"/>
  <path class="st1" d="M52.6,52.2c-8.4-19-22.2-26.7-43.1-24.6c-5.9,17.7,5.8,34.7,27.5,40.1c-9.4,5.1-26.4-1-32-11.4 C-1,44.7,1.7,32,0,19.2c13.8,2.1,28.1-0.4,40.7,7.5C50.4,32.7,55.1,42.4,52.6,52.2z" style="fill: rgb(215, 68, 51);"/>
  <path class="st2" d="M22,38.9C45.9,50.6,57.5,69.1,67.5,90c-4.6,0-8.5,0-12.7,0C52.2,68.7,37.4,55.1,22,38.9z" style="fill: rgb(215, 68, 51);"/>
  <path class="st3" d="M14.4,85.2c0-3.7,0-7.1,0-11.2c9,2.6,18,5.4,27,0.4c2.7,3.1,3.3,6.7,3.3,10.8C34.4,85.2,24.5,85.2,14.4,85.2z" style="fill: rgb(227, 32, 32);"/>
</svg>