<svg xmlns="http://www.w3.org/2000/svg" width="20.89" height="20.89" viewBox="0 0 20.89 20.89"><defs><style>.a{fill:#eb212a;}</style></defs><path class="a" d="M10.445,0A10.445,10.445,0,1,0,20.89,10.445,10.457,10.457,0,0,0,10.445,0ZM4.787,12.621a2.176,2.176,0,1,1,2.176-2.176A2.178,2.178,0,0,1,4.787,12.621Zm5.658,0a2.176,2.176,0,1,1,2.176-2.176A2.178,2.178,0,0,1,10.445,12.621Zm5.658,0a2.176,2.176,0,1,1,2.176-2.176A2.178,2.178,0,0,1,16.1,12.621Zm0,0" transform="translate(0 20.89) rotate(-90)"/></svg>