<svg xmlns="http://www.w3.org/2000/svg" width="48.762" height="48.761" viewBox="0 0 48.762 48.761"><defs><style>.a{fill:#008bcf;}</style></defs><path class="a" d="M272.418,154.564l1.621-.123a11.43,11.43,0,0,0-10.522-10.511l-.123,1.621A9.8,9.8,0,0,1,272.418,154.564Z" transform="translate(-238.261 -130.934)"/><path class="a" d="M270.723,270.713a11.4,11.4,0,0,0,3.312-7.2l-1.621-.123a9.8,9.8,0,0,1-9.025,9.013l.124,1.621a11.436,11.436,0,0,0,7.21-3.315Z" transform="translate(-238.257 -238.263)"/><path class="a" d="M154.219,274.035l.121-1.621A9.8,9.8,0,0,1,145.3,263.4l-1.621.123A11.43,11.43,0,0,0,154.219,274.035Z" transform="translate(-130.711 -238.267)"/><path class="a" d="M154.34,145.541l-.122-1.621a11.43,11.43,0,0,0-10.537,10.512l1.621.123a9.8,9.8,0,0,1,9.038-9.014Z" transform="translate(-130.71 -130.925)"/><path class="a" d="M191.341,199.385a.813.813,0,0,0,.463-.145l1.5-1.041a11.363,11.363,0,0,0,4.778-7.2l.547-2.782a.813.813,0,0,0-.434-.884l-6.5-3.251a.813.813,0,0,0-.727,0l-2.438,1.219.727,1.454,2.074-1.037,5.582,2.792-.429,2.18a9.75,9.75,0,0,1-4.109,6.171l-1.036.718-1.112-.781a9.75,9.75,0,0,1-4.056-6.14l-.422-2.148,1.882-.941-.727-1.454-2.435,1.218a.813.813,0,0,0-.434.884l.541,2.751a11.365,11.365,0,0,0,4.718,7.161l1.576,1.107A.811.811,0,0,0,191.341,199.385Z" transform="translate(-166.954 -166.932)"/><path class="a" d="M236.543,238.981a.81.81,0,0,0,.575-.238l3.251-3.251-1.149-1.149-2.676,2.676-1.051-1.051-1.149,1.149,1.625,1.625A.81.81,0,0,0,236.543,238.981Z" transform="translate(-212.162 -212.162)"/><path class="a" d="M24.151,173.587a16.129,16.129,0,0,0,2.98,8.6l1.325-.942a14.512,14.512,0,0,1-2.677-7.656h1.6v-1.625h-1.6a14.512,14.512,0,0,1,2.677-7.656l-1.325-.942a16.129,16.129,0,0,0-2.98,8.6H22.4a3.251,3.251,0,1,0,0,1.625Zm-4.9.813a1.625,1.625,0,1,1,1.625-1.625A1.625,1.625,0,0,1,19.255,174.4Z" transform="translate(-16.004 -148.393)"/><path class="a" d="M382.628,169.523a3.257,3.257,0,0,0-3.148,2.438h-1.749a16.129,16.129,0,0,0-2.98-8.6l-1.324.942a14.513,14.513,0,0,1,2.677,7.656h-1.6v1.625h1.6a14.512,14.512,0,0,1-2.677,7.656l1.325.942a16.13,16.13,0,0,0,2.98-8.6h1.748a3.251,3.251,0,1,0,3.148-4.064Zm0,4.876a1.625,1.625,0,1,1,1.625-1.625A1.625,1.625,0,0,1,382.628,174.4Z" transform="translate(-337.117 -148.393)"/><path class="a" d="M80.157,83.412a3.252,3.252,0,0,0,1.651-.449l3.521,3.521,1.149-1.149-3.521-3.521a3.257,3.257,0,0,0-.5-3.949h0a3.251,3.251,0,1,0-2.3,5.548Zm-1.149-4.4a1.628,1.628,0,0,1,2.3,0h0a1.625,1.625,0,1,1-2.3,0Z" transform="translate(-70.717 -70.724)"/><path class="a" d="M349.473,344.876a3.257,3.257,0,0,0-3.95-.5L342,340.853,340.853,342l3.521,3.521a3.251,3.251,0,1,0,5.1-.647Zm-1.149,3.448a1.625,1.625,0,1,1,0-2.3,1.625,1.625,0,0,1,0,2.3Z" transform="translate(-307.852 -307.852)"/><path class="a" d="M86.526,342l-1.149-1.149-3.521,3.521a3.25,3.25,0,1,0,.647,5.1h0a3.257,3.257,0,0,0,.5-3.95Zm-5.172,6.321a1.625,1.625,0,1,1,0-2.3A1.625,1.625,0,0,1,81.354,348.324Z" transform="translate(-70.765 -307.852)"/><path class="a" d="M340.853,85.349,342,86.5l3.521-3.521a3.258,3.258,0,0,0,3.95-.5h0a3.251,3.251,0,1,0-5.1-.647Zm5.172-6.321a1.621,1.621,0,1,1-.478,1.149A1.625,1.625,0,0,1,346.025,79.028Z" transform="translate(-307.852 -70.738)"/><path class="a" d="M182.185,374.756l-.942-1.325a14.512,14.512,0,0,1-7.656,2.677v-1.6h-1.625v1.6a14.512,14.512,0,0,1-7.656-2.677l-.942,1.325a16.13,16.13,0,0,0,8.6,2.98v1.748a3.251,3.251,0,1,0,1.625,0v-1.748A16.13,16.13,0,0,0,182.185,374.756Zm-7.785,7.876a1.625,1.625,0,1,1-1.625-1.625A1.625,1.625,0,0,1,174.4,382.632Z" transform="translate(-148.393 -337.12)"/><path class="a" d="M163.363,27.131l.942,1.325a14.512,14.512,0,0,1,7.656-2.677v1.6h1.625v-1.6a14.512,14.512,0,0,1,7.656,2.677l.942-1.325a16.13,16.13,0,0,0-8.6-2.98V22.4a3.251,3.251,0,1,0-1.625,0v1.749a16.13,16.13,0,0,0-8.6,2.98Zm7.785-7.876a1.625,1.625,0,1,1,1.625,1.625A1.625,1.625,0,0,1,171.148,19.255Z" transform="translate(-148.393 -16.004)"/></svg>