<svg xmlns="http://www.w3.org/2000/svg" width="69.116" height="45.734" viewBox="0 0 69.116 45.734"><defs><style>.a{fill:#008bcf;fill-rule:evenodd;}</style></defs><path class="a" d="M13.92,298.861h2.06a.61.61,0,0,1,.61.61v13a.61.61,0,0,1-.61.61H13.92a.61.61,0,0,1-.61-.61v-13a.61.61,0,0,1,.61-.61Zm1.45,1.22h-.841v11.779h.841Zm4.257-1.22h2.06a.61.61,0,0,1,.61.61v13a.61.61,0,0,1-.61.61h-2.06a.61.61,0,0,1-.61-.61v-13a.61.61,0,0,1,.61-.61Zm1.45,1.22h-.841v11.779h.841Zm4.256-1.22h2.061a.61.61,0,0,1,.61.61v13a.61.61,0,0,1-.61.61H25.333a.61.61,0,0,1-.61-.61v-13a.61.61,0,0,1,.61-.61Zm1.451,1.22h-.841v11.779h.841Zm4.256-1.22H33.1a.61.61,0,0,1,.61.61v13a.61.61,0,0,1-.61.61H31.04a.61.61,0,0,1-.61-.61v-13a.61.61,0,0,1,.61-.61Zm1.451,1.22H31.65v11.779h.841Zm4.055-1.22h2.061a.61.61,0,0,1,.61.61v13a.61.61,0,0,1-.61.61H36.546a.61.61,0,0,1-.61-.61v-13a.61.61,0,0,1,.61-.61ZM38,300.08h-.841v11.779H38Zm4.256-1.22h2.061a.61.61,0,0,1,.61.61v13a.61.61,0,0,1-.61.61H42.253a.61.61,0,0,1-.61-.61v-13a.61.61,0,0,1,.61-.61Zm1.451,1.22h-.841v11.779H43.7Zm4.256-1.22h2.06a.61.61,0,0,1,.61.61v13a.61.61,0,0,1-.61.61H47.96a.61.61,0,0,1-.61-.61v-13a.61.61,0,0,1,.61-.61Zm1.451,1.22H48.57v11.779h.841Zm4.257-1.22h2.06a.61.61,0,0,1,.61.61v13a.61.61,0,0,1-.61.61h-2.06a.61.61,0,0,1-.61-.61v-13a.61.61,0,0,1,.61-.61Zm1.45,1.22h-.841v11.779h.841Zm-45.009-4.767H59.537a.61.61,0,0,1,.61.61v20.094a.61.61,0,0,1-.61.61H10.109a.61.61,0,0,1-.61-.61V295.923a.61.61,0,0,1,.61-.61Zm48.819,1.219H10.719v18.874H58.928ZM5.155,291.111h5.835v-7.4a.61.61,0,0,1,.61-.61h4.28a.61.61,0,0,1,.61.61v7.4h5.042v-7.4a.61.61,0,0,1,.61-.61h4.28a.61.61,0,0,1,.61.61v7.4h5.042v-7.4a.61.61,0,0,1,.61-.61h4.28a.61.61,0,0,1,.61.61v7.4h5.043v-7.4a.61.61,0,0,1,.61-.61H47.5a.61.61,0,0,1,.61.61v7.4h5.042v-7.4a.61.61,0,0,1,.61-.61h4.28a.61.61,0,0,1,.61.61v7.4h5.835a.61.61,0,0,1,.61.61v11.5h3.67a.61.61,0,0,1,.61.61v4.282a.61.61,0,0,1-.61.61H65.1v11.5a.61.61,0,0,1-.61.61H58.656v7.4a.61.61,0,0,1-.61.61h-4.28a.61.61,0,0,1-.61-.61v-7.4H48.114v7.4a.61.61,0,0,1-.61.61h-4.28a.61.61,0,0,1-.61-.61v-7.4H37.572v7.4a.61.61,0,0,1-.61.61h-4.28a.61.61,0,0,1-.61-.61v-7.4H27.031v7.4a.61.61,0,0,1-.61.61h-4.28a.61.61,0,0,1-.61-.61v-7.4H16.489v7.4a.61.61,0,0,1-.61.61H11.6a.61.61,0,0,1-.61-.61v-7.4H5.155a.61.61,0,0,1-.61-.61v-11.5H.875a.61.61,0,0,1-.61-.61V303.83a.61.61,0,0,1,.61-.61h3.67v-11.5a.61.61,0,0,1,.61-.61Zm6.445,1.219H5.764v11.5a.61.61,0,0,1-.61.61H1.484V307.5h3.67a.61.61,0,0,1,.61.61v11.5H11.6a.61.61,0,0,1,.61.61v7.4h3.061v-7.4a.61.61,0,0,1,.61-.61H22.14a.61.61,0,0,1,.61.61v7.4h3.061v-7.4a.61.61,0,0,1,.61-.61h6.261a.61.61,0,0,1,.61.61v7.4h3.061v-7.4a.61.61,0,0,1,.61-.61h6.262a.61.61,0,0,1,.61.61v7.4h3.061v-7.4a.61.61,0,0,1,.61-.61h6.261a.61.61,0,0,1,.61.61v7.4h3.061v-7.4a.61.61,0,0,1,.61-.61h5.835v-11.5a.61.61,0,0,1,.61-.61h3.67v-3.061h-3.67a.61.61,0,0,1-.61-.61v-11.5H58.047a.61.61,0,0,1-.61-.61v-7.4H54.376v7.4a.61.61,0,0,1-.61.61H47.5a.61.61,0,0,1-.61-.61v-7.4H43.834v7.4a.61.61,0,0,1-.61.61H36.963a.61.61,0,0,1-.61-.61v-7.4H33.292v7.4a.61.61,0,0,1-.61.61H26.422a.61.61,0,0,1-.61-.61v-7.4H22.75v7.4a.61.61,0,0,1-.61.61H15.879a.61.61,0,0,1-.61-.61v-7.4H12.209v7.4a.61.61,0,0,1-.61.61Z" transform="translate(-0.265 -283.106)"/></svg>