<svg xmlns="http://www.w3.org/2000/svg" width="64" height="64" viewBox="0 0 64 64"><defs><style>.a{fill:#008bcf;}</style></defs><path class="a" d="M24,56a.945.945,0,0,1,1-1h1a1,1,0,0,1,0,2H25A.945.945,0,0,1,24,56ZM13,57h8a1,1,0,0,0,0-2H13a1,1,0,0,0,0,2Zm18-5v5c0,.2,0,.3-.1.4l-1,2a.961.961,0,0,1-.9.6H10a.961.961,0,0,1-.9-.6l-1-2C8,57.3,8,57.2,8,57V52a.945.945,0,0,1,1-1H30A.945.945,0,0,1,31,52Zm-2,1H10v3.8l.6,1.2H28.4l.6-1.2ZM5,54a.945.945,0,0,0-1,1v1a.945.945,0,0,0,1,1,.945.945,0,0,0,1-1V55A.945.945,0,0,0,5,54Zm29,0a.945.945,0,0,0-1,1v1a1,1,0,0,0,2,0V55A.945.945,0,0,0,34,54Zm21-6a1,1,0,0,0,0-2H52a1,1,0,0,0,0,2Zm5-3V55a2.006,2.006,0,0,1-2,2H49a2.006,2.006,0,0,1-2-2V45a1,1,0,0,1,2,0v5h9V45a1,1,0,0,1,2,0Zm-2,7H49v3h9Zm6-20.2V50a2.006,2.006,0,0,1-2,2,1,1,0,0,1,0-2V42H47a1,1,0,0,1,0-2H62V31.8a.908.908,0,0,0-.3-.7l-2.8-2.8a.908.908,0,0,0-.7-.3H48.9a.908.908,0,0,0-.7.3l-2.8,2.8a.908.908,0,0,0-.3.7V50a1,1,0,0,1,0,2,2.006,2.006,0,0,1-2-2V31.8a2.723,2.723,0,0,1,.9-2.1l2.8-2.8a2.878,2.878,0,0,1,2.1-.9h.4l.7-3.4a1.985,1.985,0,0,1,1.1-1.4V11a6.018,6.018,0,0,0-6-6H28a6.018,6.018,0,0,0-6,6V21.2a1.933,1.933,0,0,1,1.1,1.4l.7,3.4H34a4.951,4.951,0,0,1,5,5V59a4.951,4.951,0,0,1-5,5H5a4.951,4.951,0,0,1-5-5V31a4.951,4.951,0,0,1,5-5H15.2l.7-3.4A1.985,1.985,0,0,1,17,21.2V11A10.968,10.968,0,0,1,28,0H45A10.968,10.968,0,0,1,56,11V21.2a1.933,1.933,0,0,1,1.1,1.4l.7,3.4h.4a2.723,2.723,0,0,1,2.1.9l2.8,2.8A2.878,2.878,0,0,1,64,31.8ZM37,52a2.946,2.946,0,0,0-3-3H5a2.946,2.946,0,0,0-3,3v7a2.946,2.946,0,0,0,3,3H34a2.946,2.946,0,0,0,3-3ZM34,28H5a2.946,2.946,0,0,0-3,3V48a5.142,5.142,0,0,1,3-1H34a5.142,5.142,0,0,1,3,1V31A2.946,2.946,0,0,0,34,28ZM21.8,26l-.6-3H17.8l-.6,3ZM53,11V21h1V11a8.963,8.963,0,0,0-9-9H28a8.963,8.963,0,0,0-9,9V21h1V11a8.024,8.024,0,0,1,8-8H45A8.024,8.024,0,0,1,53,11ZM51.2,26h4.6l-.6-3H51.8ZM57,37a.945.945,0,0,0,1-1V33a.945.945,0,0,0-1-1H50a.945.945,0,0,0-1,1v3a1,1,0,0,0,2,0V34h5v2A.945.945,0,0,0,57,37Z"/></svg>