<svg xmlns="http://www.w3.org/2000/svg" width="44.831" height="44.831" viewBox="0 0 44.831 44.831"><defs><style>.a{fill:#008bcf;}</style></defs><g transform="translate(0)"><path class="a" d="M37.724,23.073h3.787a1.726,1.726,0,1,0,0-1.313H37.724V16.015h3.787a1.726,1.726,0,1,0,0-1.313H37.724V7.765a.657.657,0,0,0-.657-.657H34.247a.657.657,0,0,0,0,1.313H36.41v6.936h0v7.056h0v7.056h0V36.41H8.423V29.474h0V22.416h0V15.359h0V8.422H31.659a.657.657,0,0,0,0-1.313H30.131V3.321a1.726,1.726,0,1,0-1.313,0V7.108H23.074V3.321a1.726,1.726,0,1,0-1.313,0V7.108H16.017V3.321a1.726,1.726,0,1,0-1.313,0V7.108H7.766a.657.657,0,0,0-.657.657V14.7H3.322a1.726,1.726,0,1,0,0,1.313H7.109v5.744H3.322a1.726,1.726,0,1,0,0,1.313H7.109v5.744H3.322a1.726,1.726,0,1,0,0,1.313H7.109v6.937a.657.657,0,0,0,.657.657H14.7V41.51a1.726,1.726,0,1,0,1.313,0V37.723h5.744V41.51a1.726,1.726,0,1,0,1.313,0V37.723h5.744V41.51a1.726,1.726,0,1,0,1.313,0V37.723h6.937a.657.657,0,0,0,.657-.657V30.13h3.787a1.726,1.726,0,1,0,0-1.313H37.724V23.073ZM43.106,22a.412.412,0,1,1-.412.412A.413.413,0,0,1,43.106,22Zm0-7.057a.412.412,0,1,1-.412.412A.413.413,0,0,1,43.106,14.946ZM29.474,1.313a.412.412,0,0,1,0,.825h-.006a.412.412,0,0,1,0-.825Zm-7.057,0a.412.412,0,0,1,0,.824h-.006a.412.412,0,0,1,0-.825Zm-7.057,0a.412.412,0,0,1,0,.824h-.006a.412.412,0,0,1,0-.825ZM1.727,15.77a.412.412,0,1,1,.412-.412A.413.413,0,0,1,1.727,15.77Zm0,7.057a.412.412,0,1,1,.412-.412A.413.413,0,0,1,1.727,22.828Zm0,7.057a.412.412,0,1,1,.412-.412A.413.413,0,0,1,1.727,29.885ZM15.359,43.518a.412.412,0,0,1,0-.824h0a.412.412,0,0,1,0,.824Zm7.057,0a.412.412,0,0,1,0-.824h0a.412.412,0,0,1,0,.825Zm7.057,0a.412.412,0,0,1,0-.824h0a.412.412,0,0,1,0,.825ZM43.106,29.061a.412.412,0,1,1-.412.412A.413.413,0,0,1,43.106,29.061Z" transform="translate(-0.001)"/></g><g transform="translate(9.276 9.276)"><path class="a" d="M131.561,105.938H106.595a.657.657,0,0,0-.657.657v18.24a.657.657,0,1,0,1.313,0V107.251H130.9V130.9H107.251v-3.482a.657.657,0,0,0-1.313,0v4.139a.657.657,0,0,0,.657.657h24.966a.657.657,0,0,0,.657-.657V106.595A.657.657,0,0,0,131.561,105.938Z" transform="translate(-105.938 -105.938)"/></g><g transform="translate(17.265 17.266)"><path class="a" d="M206.827,197.184h-8.987a.657.657,0,0,0-.657.657v8.987a.657.657,0,0,0,.657.657H201.3a.657.657,0,1,0,0-1.313H198.5V198.5h7.673v7.673h-2.28a.657.657,0,1,0,0,1.313h2.937a.657.657,0,0,0,.657-.657v-8.987A.657.657,0,0,0,206.827,197.184Z" transform="translate(-197.184 -197.184)"/></g><g transform="translate(12.575 12.575)"><path class="a" d="M145.331,143.617h-1.057a.657.657,0,0,0-.657.657v1.057a.657.657,0,0,0,.657.657h1.057a.657.657,0,0,0,.657-.657v-1.057A.657.657,0,0,0,145.331,143.617Z" transform="translate(-143.617 -143.617)"/></g><g transform="translate(16.037 12.575)"><path class="a" d="M184.871,143.617h-1.057a.657.657,0,0,0-.657.657v1.057a.657.657,0,0,0,.657.657h1.057a.657.657,0,0,0,.657-.657v-1.057A.657.657,0,0,0,184.871,143.617Z" transform="translate(-183.157 -143.617)"/></g><g transform="translate(19.499 12.575)"><path class="a" d="M224.409,143.617h-1.057a.657.657,0,0,0-.657.657v1.057a.657.657,0,0,0,.657.657h1.057a.657.657,0,0,0,.657-.657v-1.057A.657.657,0,0,0,224.409,143.617Z" transform="translate(-222.695 -143.617)"/></g><g transform="translate(22.961 12.575)"><path class="a" d="M263.948,143.617h-1.057a.657.657,0,0,0-.657.657v1.057a.657.657,0,0,0,.657.657h1.057a.657.657,0,0,0,.657-.657v-1.057A.657.657,0,0,0,263.948,143.617Z" transform="translate(-262.234 -143.617)"/></g><g transform="translate(26.423 12.575)"><path class="a" d="M303.487,143.617H302.43a.657.657,0,0,0-.657.657v1.057a.657.657,0,0,0,.657.657h1.057a.657.657,0,0,0,.657-.657v-1.057A.657.657,0,0,0,303.487,143.617Z" transform="translate(-301.773 -143.617)"/></g><g transform="translate(29.885 12.575)"><path class="a" d="M343.025,143.617h-1.057a.657.657,0,0,0-.657.657v1.057a.657.657,0,0,0,.657.657h1.057a.657.657,0,0,0,.657-.657v-1.057A.657.657,0,0,0,343.025,143.617Z" transform="translate(-341.311 -143.617)"/></g><g transform="translate(12.575 29.885)"><path class="a" d="M145.331,341.311h-1.057a.657.657,0,0,0-.657.657v1.057a.657.657,0,0,0,.657.657h1.057a.657.657,0,0,0,.657-.657v-1.057A.657.657,0,0,0,145.331,341.311Z" transform="translate(-143.617 -341.311)"/></g><g transform="translate(16.037 29.885)"><path class="a" d="M184.87,341.311h-1.057a.657.657,0,0,0-.657.657v1.057a.657.657,0,0,0,.657.657h1.057a.657.657,0,0,0,.657-.657v-1.057A.657.657,0,0,0,184.87,341.311Z" transform="translate(-183.156 -341.311)"/></g><g transform="translate(19.499 29.885)"><path class="a" d="M224.409,341.311h-1.057a.657.657,0,0,0-.657.657v1.057a.657.657,0,0,0,.657.657h1.057a.657.657,0,0,0,.657-.657v-1.057A.657.657,0,0,0,224.409,341.311Z" transform="translate(-222.695 -341.311)"/></g><g transform="translate(22.961 29.885)"><path class="a" d="M263.948,341.311h-1.057a.657.657,0,0,0-.657.657v1.057a.657.657,0,0,0,.657.657h1.057a.657.657,0,0,0,.657-.657v-1.057A.657.657,0,0,0,263.948,341.311Z" transform="translate(-262.234 -341.311)"/></g><g transform="translate(26.423 29.885)"><path class="a" d="M303.487,341.311H302.43a.657.657,0,0,0-.657.657v1.057a.657.657,0,0,0,.657.657h1.057a.657.657,0,0,0,.657-.657v-1.057A.657.657,0,0,0,303.487,341.311Z" transform="translate(-301.773 -341.311)"/></g><g transform="translate(29.885 29.885)"><path class="a" d="M343.025,341.311h-1.057a.657.657,0,0,0-.657.657v1.057a.657.657,0,0,0,.657.657h1.057a.657.657,0,0,0,.657-.657v-1.057A.657.657,0,0,0,343.025,341.311Z" transform="translate(-341.311 -341.311)"/></g><g transform="translate(12.575 16.037)"><path class="a" d="M145.331,183.156h-1.057a.657.657,0,0,0-.657.657v1.057a.657.657,0,0,0,.657.657h1.057a.657.657,0,0,0,.657-.657v-1.057A.657.657,0,0,0,145.331,183.156Z" transform="translate(-143.617 -183.156)"/></g><g transform="translate(12.575 19.499)"><path class="a" d="M145.331,222.7h-1.057a.657.657,0,0,0-.657.657v1.057a.657.657,0,0,0,.657.657h1.057a.657.657,0,0,0,.657-.657v-1.057A.657.657,0,0,0,145.331,222.7Z" transform="translate(-143.617 -222.695)"/></g><g transform="translate(12.575 22.961)"><path class="a" d="M145.331,262.234h-1.057a.657.657,0,0,0-.657.657v1.057a.657.657,0,0,0,.657.657h1.057a.657.657,0,0,0,.657-.657v-1.057A.657.657,0,0,0,145.331,262.234Z" transform="translate(-143.617 -262.234)"/></g><g transform="translate(12.575 26.423)"><path class="a" d="M145.331,301.772h-1.057a.657.657,0,0,0-.657.657v1.057a.657.657,0,0,0,.657.657h1.057a.657.657,0,0,0,.657-.657v-1.057A.657.657,0,0,0,145.331,301.772Z" transform="translate(-143.617 -301.772)"/></g><g transform="translate(29.885 16.037)"><path class="a" d="M343.025,183.156h-1.057a.657.657,0,0,0-.657.657v1.057a.657.657,0,0,0,.657.657h1.057a.657.657,0,0,0,.657-.657v-1.057A.657.657,0,0,0,343.025,183.156Z" transform="translate(-341.311 -183.156)"/></g><g transform="translate(29.885 19.499)"><path class="a" d="M343.025,222.7h-1.057a.657.657,0,0,0-.657.657v1.057a.657.657,0,0,0,.657.657h1.057a.657.657,0,0,0,.657-.657v-1.057A.657.657,0,0,0,343.025,222.7Z" transform="translate(-341.311 -222.695)"/></g><g transform="translate(29.885 22.961)"><path class="a" d="M343.025,262.234h-1.057a.657.657,0,0,0-.657.657v1.057a.657.657,0,0,0,.657.657h1.057a.657.657,0,0,0,.657-.657v-1.057A.657.657,0,0,0,343.025,262.234Z" transform="translate(-341.311 -262.234)"/></g><g transform="translate(29.885 26.423)"><path class="a" d="M343.025,301.772h-1.057a.657.657,0,0,0-.657.657v1.057a.657.657,0,0,0,.657.657h1.057a.657.657,0,0,0,.657-.657v-1.057A.657.657,0,0,0,343.025,301.772Z" transform="translate(-341.311 -301.772)"/></g></svg>