<?xml version="1.0" encoding="utf-8"?>
<svg version="1.1" id="Layer_1" x="0px" y="0px" viewBox="0 0 107.1 89.3" style="enable-background:new 0 0 107.1 89.3;" xmlns="http://www.w3.org/2000/svg">
  <style type="text/css">
	.st0{fill:#76B043;}
	.st1{fill:#4A883F;}
	.st2{fill:#FDFEFD;}
</style>
  <path class="st0" d="M79.1,89.3c-4.6,0-8,0-11.5,0c-2.5-2.2-4.8-4.5-7.4-6.6c-2.5-2-5.3-3.5-8.7-3.1C25.8,82.2,9.8,63,7.3,41.2 C6.1,30.8,5,20.4,0,10.8c22.6-2.1,51.5,13.5,61.5,33.1c4.5,8.9,4.7,18.2,2.9,27.8c-0.2,1-0.3,1.9-0.5,3.1 C68.7,79.4,73.5,84,79.1,89.3z" style="fill: rgba(215, 68, 51, 0.86);"/>
  <path class="st1" d="M107.1,0.8c-8.9,9.6-10.5,21.2-12.2,32.8c-0.7,4.6-1.1,9.3-2.1,13.8C91,56,86,62,76.2,64.8 c8.4-9.4,8.8-20.2,9.9-30.8c0.8-8.1,1.3-16.2,4.1-24.5c-14.2-1.2-23,7.9-32.7,15.6c-2-2.1-3.8-4-5.9-6.2C67.5,5,85.1-2.7,107.1,0.8z " style="fill: rgb(227, 32, 32);"/>
  <path class="st2" d="M20.5,28.7c8.8,2.6,15.6,7.7,19.9,15.8c2,3.8,3.6,7.8,5.3,11.8c1.9,4.5,4.4,8.6,7.8,13 c-6.9-1.2-11.8-4.3-15.9-9c-4.1-4.9-6.8-10.6-9.5-16.3C25.9,38.8,23.4,33.7,20.5,28.7z"/>
</svg>