<svg xmlns="http://www.w3.org/2000/svg" width="40.097" height="35.398" viewBox="0 0 40.097 35.398"><defs><style>.a{fill:#008bcf;}</style></defs><circle class="a" cx="0.47" cy="0.47" r="0.47" transform="translate(19.579 2.467)"/><path class="a" d="M117.373,77.19v-16.6a.587.587,0,0,0-.587-.587h-8.963a.588.588,0,0,0-.415.172l-1.66,1.66a1.76,1.76,0,0,1-2.492,0l-.008-.008-1.654-1.653a.587.587,0,0,0-.415-.172H92.214a.587.587,0,0,0-.587.587v7.127a.587.587,0,1,0,1.175,0V61.175h8.132l1.231,1.23c.111.111.195.194.263.257l0,0a2.935,2.935,0,0,0,4.152,0l1.489-1.489H116.2V76.6H92.8V70.063a.587.587,0,1,0-1.175,0V77.19a.587.587,0,0,0,.587.587h24.571A.587.587,0,0,0,117.373,77.19Z" transform="translate(-84.451 -57.651)"/><path class="a" d="M40.008,62.15l-5.183-8.294a2.945,2.945,0,0,0-.728-.794,2.934,2.934,0,0,0,1.175-2.348V32.937A2.94,2.94,0,0,0,32.334,30H7.763a2.94,2.94,0,0,0-2.937,2.937V50.714A2.934,2.934,0,0,0,6,53.062a2.945,2.945,0,0,0-.728.795L.089,62.15A.587.587,0,0,0,0,62.461,2.94,2.94,0,0,0,2.937,65.4H37.16A2.94,2.94,0,0,0,40.1,62.461.587.587,0,0,0,40.008,62.15ZM6,50.714V32.937a1.764,1.764,0,0,1,1.762-1.762H32.334A1.764,1.764,0,0,1,34.1,32.937V50.714a1.764,1.764,0,0,1-1.762,1.762H7.763A1.764,1.764,0,0,1,6,50.714Zm.268,3.765a1.752,1.752,0,0,1,1.494-.828H32.334a1.752,1.752,0,0,1,1.494.828l4.622,7.395H1.647Zm-4.992,8.57H14.156a2.924,2.924,0,0,0,.53,1.175H2.937a1.764,1.764,0,0,1-1.66-1.175Zm15.756,1.175a1.765,1.765,0,0,1-1.661-1.175h9.352a1.765,1.765,0,0,1-1.661,1.175Zm20.127,0H25.412a2.926,2.926,0,0,0,.53-1.175H38.82a1.764,1.764,0,0,1-1.66,1.175Z" transform="translate(0 -30)"/><path class="a" d="M63.575,351.4a.587.587,0,0,0,.514.3H93.065a.587.587,0,0,0,.5-.9l-2.2-3.524a.587.587,0,0,0-.5-.276H66.292a.587.587,0,0,0-.5.276l-2.2,3.524A.587.587,0,0,0,63.575,351.4Zm3.042-3.222h23.92l1.468,2.349H65.149Z" transform="translate(-58.529 -322.175)"/></svg>