<svg xmlns="http://www.w3.org/2000/svg" width="49.857" height="43.43" viewBox="0 0 49.857 43.43"><defs><style>.a{fill:#008bcf;}</style></defs><circle class="a" cx="0.974" cy="0.974" r="0.974" transform="translate(36.08 20.994)"/><path class="a" d="M49.726,74.969,40.087,58.275a.974.974,0,0,0-1.687.974l7.753,13.427-4.5-2.709a2.917,2.917,0,0,0-2.1-3.407,2.951,2.951,0,0,0-.474-.086L26.136,44.063c-.014-.025-.031-.048-.048-.071l-.115-6.265L34.018,51.66a.973.973,0,0,0,1.33.357.975.975,0,0,0,.357-1.33l-9.932-17.2a.974.974,0,0,0-1.687,0L.13,74.967a.974.974,0,0,0,.843,1.46l47.91,0a.974.974,0,0,0,.843-1.46ZM35.917,68.88H14.627c-.007-.055-.016-.111-.026-.166l4.168-2.405H31.8l4.131,2.487C35.927,68.823,35.922,68.851,35.917,68.88ZM11.243,68.4a.973.973,0,1,1-.454.591.968.968,0,0,1,.454-.591Zm12.79-10.686a2.924,2.924,0,0,0,.364.161l.053,2.9-3.281,1.893Zm1.391,4.75,3.145,1.894H22.143Zm-1.486-9.859a2.925,2.925,0,0,0-1.267,3.574L17.8,64.621l-4.168,2.405c-.043-.036-.086-.072-.131-.106L24.221,48.353l.075,4.079a2.961,2.961,0,0,0-.359.175ZM26.4,60.78,26.345,57.9c.08-.027.159-.06.238-.095l2.732,4.732Zm-.06-5.391a.973.973,0,1,1-.942-1.226.98.98,0,0,1,.254.034.974.974,0,0,1,.688,1.192Zm-2.186-10.81L11.589,66.33a2.922,2.922,0,0,0-2.733,3.45L3.633,72.794l20.388-35.3ZM9.83,71.466a2.92,2.92,0,0,0,4.355-.641H36.256l.008.015a2.92,2.92,0,0,0,4.387.794l4.728,2.847-40.771,0Zm29.452-1.242a.974.974,0,1,1,.356-1.33A.975.975,0,0,1,39.281,70.225Zm-2.158-3.238q-.1.067-.186.14l-4.176-2.514-4.736-8.2a2.943,2.943,0,0,0,.193-.518,2.919,2.919,0,0,0-1.977-3.551L26.163,48Z" transform="translate(0 -33)"/></svg>