<svg xmlns="http://www.w3.org/2000/svg" width="73.523" height="73.5" viewBox="0 0 73.523 73.5"><defs><style>.a{fill:#fff;stroke:#fff;stroke-width:0.5px;}</style></defs><g transform="translate(-762.358 -906.35)"><path class="a" d="M21.674,88H18.168a1.168,1.168,0,1,0,0,2.337h3.505a1.168,1.168,0,0,0,0-2.337Z" transform="translate(755.54 868.764)"/><path class="a" d="M21.674,36H18.168a1.168,1.168,0,0,0,0,2.337h3.505a1.168,1.168,0,0,0,0-2.337Z" transform="translate(755.54 891.122)"/><path class="a" d="M102.168,90.337h3.505a1.168,1.168,0,1,0,0-2.337h-3.505a1.168,1.168,0,0,0,0,2.337Z" transform="translate(718.856 868.764)"/><path class="a" d="M102.168,38.337h3.505a1.168,1.168,0,0,0,0-2.337h-3.505a1.168,1.168,0,0,0,0,2.337Z" transform="translate(718.856 891.122)"/><path class="a" d="M25.707,63.827V45.914H23.37V63.827a2.29,2.29,0,0,1-2.337,2.239H4.674a2.29,2.29,0,0,1-2.337-2.239V32.478a2.29,2.29,0,0,1,2.337-2.239H21.033a2.29,2.29,0,0,1,2.337,2.239V39.2h2.337V32.478A4.579,4.579,0,0,0,21.033,28H4.674A4.579,4.579,0,0,0,0,32.478V63.827a4.579,4.579,0,0,0,4.674,4.478H21.033A4.579,4.579,0,0,0,25.707,63.827Z" transform="translate(762.608 894.959)"/><path class="a" d="M28,51.087a1.168,1.168,0,0,0,1.168,1.168H52.632L51.3,52.98a1.169,1.169,0,0,0,1.122,2.051l5.352-2.921a1.168,1.168,0,0,0,0-2.051l-5.352-2.921A1.169,1.169,0,0,0,51.3,49.189l1.332.73H29.168A1.168,1.168,0,0,0,28,51.087Z" transform="translate(750.318 886.336)"/><path class="a" d="M105.033,28H88.674A4.579,4.579,0,0,0,84,32.478V50.392h2.337V32.478a2.29,2.29,0,0,1,2.337-2.239h16.359a2.29,2.29,0,0,1,2.337,2.239V63.827a2.29,2.29,0,0,1-2.337,2.239H88.674a2.29,2.29,0,0,1-2.337-2.239V57.11H84v6.718a4.579,4.579,0,0,0,4.674,4.478h16.359a4.579,4.579,0,0,0,4.674-4.478V32.478A4.579,4.579,0,0,0,105.033,28Z" transform="translate(725.924 894.959)"/><path class="a" d="M78.96,71.091a1.168,1.168,0,0,0-1.168-1.168H54.329l1.332-.724a1.169,1.169,0,1,0-1.122-2.051l-5.352,2.921a1.168,1.168,0,0,0,0,2.051l5.352,2.921a1.169,1.169,0,1,0,1.122-2.051l-1.332-.73H77.792A1.168,1.168,0,0,0,78.96,71.091Z" transform="translate(741.286 877.708)"/><path class="a" d="M66.7,88.546V85.73a15.734,15.734,0,0,1-18.7,0v2.816a18.112,18.112,0,0,0,18.7,0Z" transform="translate(741.772 869.686)"/><path class="a" d="M48,35.595v2.816a15.734,15.734,0,0,1,18.7,0V35.6a18.112,18.112,0,0,0-18.7,0Z" transform="translate(741.772 892.39)"/><path class="a" d="M65.133,106.541a1.973,1.973,0,0,1-1.382.637,1.113,1.113,0,0,1-.8-.3l-3.11-3.219H58.38a6.573,6.573,0,0,1-2.464-.485,25.279,25.279,0,0,1-7.84,3.237l-1.779.4v7.175a1.625,1.625,0,0,1-1.767,1.355H40.508a1.625,1.625,0,0,1-1.767-1.355V106.81l-1.779-.4a25.257,25.257,0,0,1-7.84-3.237,6.572,6.572,0,0,1-2.464.485H25.2l-3.11,3.213a1.113,1.113,0,0,1-.8.31,1.978,1.978,0,0,1-1.382-.637l-2.793-2.886H14.45a4.58,4.58,0,0,0,1.008,1.607l2.832,2.921a4.2,4.2,0,0,0,3,1.315,3.306,3.306,0,0,0,2.4-.993l3.631-3.751a27.585,27.585,0,0,0,9.154,3.914v5.293a3.872,3.872,0,0,0,4.033,3.692H44.53a3.875,3.875,0,0,0,4.033-3.692v-5.293a27.607,27.607,0,0,0,9.16-3.914l3.631,3.751a3.306,3.306,0,0,0,2.4.993,4.2,4.2,0,0,0,2.98-1.32l2.832-2.921a4.592,4.592,0,0,0,1.008-1.607H67.92Z" transform="translate(756.601 861.947)"/><path class="a" d="M19.905,11.136a1.977,1.977,0,0,1,1.382-.619,1.113,1.113,0,0,1,.8.31L25.2,14.039h1.456a6.567,6.567,0,0,1,2.464.485,25.218,25.218,0,0,1,7.84-3.237l1.784-.4V3.692c-.006-.736.8-1.355,1.762-1.355H44.53A1.625,1.625,0,0,1,46.3,3.692v7.18l1.784.4a25.256,25.256,0,0,1,7.84,3.231,6.572,6.572,0,0,1,2.459-.485h1.456l3.116-3.213a1.113,1.113,0,0,1,.8-.31,1.973,1.973,0,0,1,1.377.637l2.8,2.886h2.657a4.58,4.58,0,0,0-1.008-1.6L66.742,9.5a4.2,4.2,0,0,0-2.991-1.32,3.3,3.3,0,0,0-2.4.993l-3.631,3.745A27.59,27.59,0,0,0,48.558,9V3.692A3.871,3.871,0,0,0,44.524,0H40.5a3.868,3.868,0,0,0-4.033,3.692V8.986A27.563,27.563,0,0,0,27.315,12.9L23.684,9.155a3.3,3.3,0,0,0-2.4-.976A4.2,4.2,0,0,0,18.3,9.5L15.47,12.421a4.572,4.572,0,0,0-1.02,1.6h2.662Z" transform="translate(756.601 906.6)"/></g></svg>