<svg xmlns="http://www.w3.org/2000/svg" width="68.088" height="71" viewBox="0 0 68.088 71"><defs><style>.a{fill:#276ace;}</style></defs><g transform="translate(-10.5)"><path class="a" d="M67.668,37.319v-5.36a7.27,7.27,0,0,0,7.06-7.262v-4.49a2.277,2.277,0,0,0,2.262-2.274V12.538a2.277,2.277,0,0,0-2.274-2.275H72.565V1.387a1.387,1.387,0,1,0-2.773,0v8.877H62.772V1.387a1.387,1.387,0,1,0-2.773,0v8.877H57.851a2.279,2.279,0,0,0-2.278,2.275v5.393a2.279,2.279,0,0,0,2.262,2.274V24.7a7.269,7.269,0,0,0,7.06,7.262v5.36a12.317,12.317,0,0,0,0,24.475v1.094a5.341,5.341,0,0,1-5.332,5.339H34.8a5.341,5.341,0,0,1-5.332-5.339V58.964h12.4a3.807,3.807,0,0,0,3.8-3.8V38.784a1.387,1.387,0,0,0-2.773,0V55.159A1.043,1.043,0,0,1,41.87,56.19H14.3a1.043,1.043,0,0,1-1.028-1.031V9.952A1.043,1.043,0,0,1,14.3,8.921H41.87A1.043,1.043,0,0,1,42.9,9.952V26.331a1.387,1.387,0,0,0,2.773,0V9.952a3.807,3.807,0,0,0-3.8-3.8H39.247V4.46A4.464,4.464,0,0,0,34.79,0H21.377A4.464,4.464,0,0,0,16.92,4.46V6.148H14.3a3.807,3.807,0,0,0-3.8,3.8V55.16a3.807,3.807,0,0,0,3.8,3.8H26.7v3.924A8.118,8.118,0,0,0,34.8,71H59.563a8.118,8.118,0,0,0,8.105-8.112V61.794a12.317,12.317,0,0,0,0-24.475ZM19.693,4.46a1.687,1.687,0,0,1,1.684-1.687H34.79A1.687,1.687,0,0,1,36.474,4.46V6.148H19.693Zm38.653,8.576h15.87v4.4H58.346ZM60.608,24.7v-4.49H71.955V24.7a4.494,4.494,0,0,1-4.484,4.494H65.092A4.494,4.494,0,0,1,60.608,24.7Zm5.673,34.4a9.543,9.543,0,1,1,9.533-9.545A9.548,9.548,0,0,1,66.281,59.1Z"/><path class="a" d="M392.238,311.8H389.9l1.85-3.719a1.387,1.387,0,0,0-2.483-1.235l-2.847,5.723a1.4,1.4,0,0,0,1.244,2H390l-1.849,3.724a1.387,1.387,0,1,0,2.484,1.233l2.843-5.727a1.418,1.418,0,0,0,.067-.162A1.4,1.4,0,0,0,392.238,311.8Z" transform="translate(-323.668 -263.633)"/><path class="a" d="M53.85,86.342a1.387,1.387,0,0,0-1.387,1.387V126.12a1.387,1.387,0,0,0,1.387,1.387h20.76A1.387,1.387,0,0,0,76,126.12V87.729a1.387,1.387,0,0,0-1.387-1.387Zm19.373,38.392H55.236v-6.653H73.223Zm0-9.426H55.236v-6.181H73.223Zm0-8.954H55.236v-7H73.223Zm0-9.772H55.236V89.115H73.223Z" transform="translate(-36.144 -74.369)"/><path class="a" d="M245.518,224.783a1.387,1.387,0,0,0-1.387,1.387v0a1.387,1.387,0,1,0,1.387-1.391Z" transform="translate(-201.233 -193.612)"/></g></svg>