<svg xmlns="http://www.w3.org/2000/svg" width="44.002" height="44.002" viewBox="0 0 44.002 44.002">
  <g id="noun_Download_2729494" transform="translate(-8.013 -8.033)">
    <path id="Path_129" data-name="Path 129" d="M32.018,51.943A22,22,0,1,1,51.923,32.038,22,22,0,0,1,32.018,51.943Zm.152-41.733A19.905,19.905,0,1,0,49.812,27.853,19.905,19.905,0,0,0,32.17,10.211Z" transform="translate(0)" fill="#008bcf"/>
    <path id="Path_130" data-name="Path 130" d="M49.99,51.07a1.048,1.048,0,0,0-1.048,1.048v4.049a2.1,2.1,0,0,1-2.1,2.1H32.4a2.1,2.1,0,0,1-2.1-2.1V52.118a1.048,1.048,0,0,0-2.1,0v4.049A4.191,4.191,0,0,0,32.4,60.357H46.847a4.191,4.191,0,0,0,4.191-4.191V52.118A1.048,1.048,0,0,0,49.99,51.07Z" transform="translate(-9.617 -20.493)" fill="#008bcf"/>
    <path id="Path_131" data-name="Path 131" d="M45.858,44.594a.838.838,0,0,0,1.247,0l2.8-3.74c.278-.372-.073-.854-.634-.854H47.529V32.248a1.048,1.048,0,1,0-2.1,0V40h-1.75c-.555,0-.9.461-.623.833Z" transform="translate(-16.642 -11.032)" fill="#008bcf"/>
  </g>
</svg>
