<svg xmlns="http://www.w3.org/2000/svg" width="13.378" height="10.797" viewBox="0 0 13.378 10.797"><defs><style>.a{fill:#008bcf;}</style></defs><path class="a" d="M8.669,21.784H19.095l-3.588,3.588a.669.669,0,1,0,.946.946l4.73-4.73h0a.675.675,0,0,0,.083-.1c.011-.017.019-.035.029-.053a.67.67,0,0,0,.033-.062.6.6,0,0,0,.022-.069c.006-.019.013-.036.017-.055a.669.669,0,0,0,.013-.131h0v0a.674.674,0,0,0-.013-.129c0-.02-.012-.039-.017-.058a.621.621,0,0,0-.021-.066.692.692,0,0,0-.035-.066c-.009-.016-.016-.033-.027-.049a.659.659,0,0,0-.084-.1l-4.73-4.729a.669.669,0,1,0-.946.946l3.588,3.588H8.669a.669.669,0,1,0,0,1.338Z" transform="translate(-8 -15.716)"/></svg>