<svg xmlns="http://www.w3.org/2000/svg" width="60" height="56" viewBox="0 0 60 56"><defs><style>.a{fill:#008bcf;}</style></defs><rect class="a" width="2" height="2" transform="translate(55 50.655)"/><rect class="a" width="2" height="2" transform="translate(52 50.655)"/><rect class="a" width="2" height="2" transform="translate(55 47.655)"/><path class="a" d="M6,47H33V40H6Zm2-5H31v3H8Z" transform="translate(-2 -4)"/><path class="a" d="M6,56H33V49H6Zm2-5H31v3H8Z" transform="translate(-2 -4)"/><path class="a" d="M39,40a3,3,0,1,0,3,3A3,3,0,0,0,39,40Zm0,4a1,1,0,1,1,1-1A1,1,0,0,1,39,44Z" transform="translate(-2 -4)"/><path class="a" d="M44,43a3,3,0,1,0,3-3A3,3,0,0,0,44,43Zm4,0a1,1,0,1,1-1-1A1,1,0,0,1,48,43Z" transform="translate(-2 -4)"/><path class="a" d="M55,46a3,3,0,1,0-3-3A3,3,0,0,0,55,46Zm0-4a1,1,0,1,1-1,1A1,1,0,0,1,55,42Z" transform="translate(-2 -4)"/><path class="a" d="M39,49a3,3,0,1,0,3,3A3,3,0,0,0,39,49Zm0,4a1,1,0,1,1,1-1A1,1,0,0,1,39,53Z" transform="translate(-2 -4)"/><path class="a" d="M47,49a3,3,0,1,0,3,3A3,3,0,0,0,47,49Zm0,4a1,1,0,1,1,1-1A1,1,0,0,1,47,53Z" transform="translate(-2 -4)"/><path class="a" d="M62,32V4H2V32H7v4H2V60H62V36H57V32ZM4,30V6H60V30Zm45,2v4H15V32ZM9,32h4v4H9Zm51,6V58H4V38Zm-5-2H51V32h4Z" transform="translate(-2 -4)"/><path class="a" d="M30,8H6V28H30ZM28,26H8V10H28Z" transform="translate(-2 -4)"/><path class="a" d="M14,25a3,3,0,0,0,3-3V13h6v4.184A2.966,2.966,0,0,0,22,17a3,3,0,1,0,3,3V11H15v8.184A2.966,2.966,0,0,0,14,19a3,3,0,0,0,0,6Zm8-4a1,1,0,1,1,1-1A1,1,0,0,1,22,21Zm-8,0a1,1,0,1,1-1,1A1,1,0,0,1,14,21Z" transform="translate(-2 -4)"/><rect class="a" width="24" height="2" transform="translate(32 3.655)"/><rect class="a" width="24" height="2" transform="translate(32 7.655)"/><path class="a" d="M46,16H33V28H46ZM44,26H35V18h9Z" transform="translate(-2 -4)"/><path class="a" d="M47,24H58V16H47Zm2-6h7v4H49Z" transform="translate(-2 -4)"/><rect class="a" width="11" height="2" transform="translate(45 20.655)"/></svg>