<svg xmlns="http://www.w3.org/2000/svg" width="12.083" height="15.103" viewBox="0 0 12.083 15.103"><defs><style>.a{fill:#0082cc;}</style></defs><g transform="translate(-231.101 -137.833)"><g transform="translate(10.485 18.063)"><path class="a" d="M31.61,40.761c-.223-.191-.445-.429-.7-.684a4.1,4.1,0,0,1-.525-.747,3.532,3.532,0,0,0,.127-2.5.728.728,0,0,0-.652-.334.67.67,0,0,0-.668.413,3.5,3.5,0,0,0,.588,2.48c-.127.413-.286.858-.477,1.351-.111.27-.238.541-.366.795-1.3.509-2.1,1.081-2.21,1.622a.634.634,0,0,0,.254.652.714.714,0,0,0,.429.159.8.8,0,0,0,.191-.032c.6-.159,1.256-1.049,1.733-1.955a9.026,9.026,0,0,1,.986-.318q.644-.191,1.145-.286a2.806,2.806,0,0,0,1.606.763,1.051,1.051,0,0,0,.843-.35.572.572,0,0,0,.159-.731C33.788,40.618,32.914,40.522,31.61,40.761Zm-4.165,2.623a.157.157,0,0,1-.127-.016c-.064-.048-.064-.079-.048-.111.032-.191.4-.541,1.192-.922A2.617,2.617,0,0,1,27.445,43.384ZM29.7,37.136c.016-.032.032-.079.159-.079a.238.238,0,0,1,.191.079A2.174,2.174,0,0,1,30,38.567,2.319,2.319,0,0,1,29.7,37.136Zm.445,3.975-.477.143c.048-.111.1-.223.143-.318.111-.3.238-.6.35-.922a3.969,3.969,0,0,0,.35.445c.143.159.286.3.429.445C30.688,40.967,30.418,41.031,30.148,41.11ZM33.5,41.4a.532.532,0,0,1-.429.175,1.639,1.639,0,0,1-.859-.334C33.136,41.11,33.661,41.206,33.5,41.4Z" transform="translate(196.239 88.675)"/><path class="a" d="M23.733,6.331,20.251,2.85a1.182,1.182,0,0,0-.827-.35H13.176A1.195,1.195,0,0,0,12,3.676v12.75A1.174,1.174,0,0,0,13.176,17.6h9.73a1.174,1.174,0,0,0,1.176-1.176V7.158A1.182,1.182,0,0,0,23.733,6.331Zm-.668.286H20.49a.529.529,0,0,1-.525-.525V3.533Zm-.159,10.3h-9.73a.5.5,0,0,1-.493-.493V3.676a.489.489,0,0,1,.493-.493h6.1V6.093A1.208,1.208,0,0,0,20.49,7.3H23.4v9.125A.5.5,0,0,1,22.906,16.92Z" transform="translate(208.616 117.27)"/></g></g></svg>