<svg xmlns="http://www.w3.org/2000/svg" width="21.942" height="23.799" viewBox="0 0 21.942 23.799"><defs><style>.a{fill:#0082cc;}</style></defs><g transform="translate(-26.219 -26.407)"><path  d="M46.275,36.878V35.492a9.085,9.085,0,1,0-18.17,0v1.386a3.1,3.1,0,0,0-1.886,2.848v2.367a3.1,3.1,0,0,0,3.093,3.093h.4a1.807,1.807,0,0,0,1.805-1.805V38.438a1.807,1.807,0,0,0-1.805-1.805h-.08v-1.14a7.555,7.555,0,0,1,15.109,0v1.14h-.08a1.807,1.807,0,0,0-1.805,1.805v4.943a1.808,1.808,0,0,0,1.485,1.776,3.317,3.317,0,0,1-3.029,2.529,1.625,1.625,0,0,0-.187-.225,1.6,1.6,0,0,0-1.137-.471H38.425a1.608,1.608,0,1,0,0,3.215H39.99a1.61,1.61,0,0,0,1.486-1,4.85,4.85,0,0,0,4.442-4.144,3.1,3.1,0,0,0,2.243-2.973V39.726A3.1,3.1,0,0,0,46.275,36.878ZM39.99,49.619Z"/></g></svg>