<?xml version="1.0" encoding="utf-8"?>
<!-- Generator: Adobe Illustrator 21.0.0, SVG Export Plug-In . SVG Version: 6.00 Build 0)  -->
<svg version="1.1"
	 id="svg19" inkscape:version="0.92.0 r15299" sodipodi:docname="diotec.svg" xmlns:cc="http://creativecommons.org/ns#" xmlns:dc="http://purl.org/dc/elements/1.1/" xmlns:inkscape="http://www.inkscape.org/namespaces/inkscape" xmlns:rdf="http://www.w3.org/1999/02/22-rdf-syntax-ns#" xmlns:sodipodi="http://sodipodi.sourceforge.net/DTD/sodipodi-0.dtd" xmlns:svg="http://www.w3.org/2000/svg"
	 xmlns="http://www.w3.org/2000/svg" xmlns:xlink="http://www.w3.org/1999/xlink" x="0px" y="0px" viewBox="0 0 772.1 230.1"
	 style="enable-background:new 0 0 772.1 230.1;" xml:space="preserve">
<style type="text/css">
	.st0{fill:#D90000;}
</style>
<sodipodi:namedview  bordercolor="#666666" borderopacity="1" gridtolerance="10" guidetolerance="10" id="namedview21" inkscape:current-layer="svg19" inkscape:cx="183.77316" inkscape:cy="256.66313" inkscape:pageopacity="0" inkscape:pageshadow="2" inkscape:window-height="967" inkscape:window-maximized="0" inkscape:window-width="1507" inkscape:window-x="161" inkscape:window-y="7" inkscape:zoom="0.7169174" objecttolerance="10" pagecolor="#ffffff" showgrid="false">
	</sodipodi:namedview>
<g id="g4499">
	<path id="Diotec" inkscape:connector-curvature="0" inkscape:label="" d="M227.8,138.8c28.3,0,62.1,3.9,86.4-13.4
		c16.8-12.2,22.1-32.6,22.1-52.4c0-20-4.9-40.4-22.1-52.6C288.3,4,257,7.3,227.8,7.3V138.8z M253.3,28h14.2
		c25.9,0,41.6,20.5,42,45.1c-0.4,24.4-16.3,45.2-42,45.2h-14.2V28z M362.2,138.8h24.5V41.8h-24.5V138.8z M362.2,24.1h24.5V0h-24.5
		V24.1z M408,91c-0.1,29.2,20,50.1,49.1,50.1c29.4,0,49.5-20.7,49.3-50.1c-0.2-29.7-18.9-51.4-49.3-51.4C427,39.6,408.1,61.6,408,91
		z M457.2,59.1c32.8,0,31.7,62.6,0,62.6C426.2,121.6,424.6,59.1,457.2,59.1z M537.2,109.7c0.1,20.4,10.1,31,29.8,31.4
		c7.2,0.1,13.2-0.8,18.1-2.3l-0.7-19.9c-2.8,1.8-6.5,2.7-11.1,2.7c-9.5-0.3-11.8-8.3-11.5-16V60.2h21.8V41.8h-21.8V14.3l-24.5,8.1
		v19.4h-18v18.4h18V109.7z M619.8,80.9C620.7,68,628,58.4,641.6,58c13.4,0.4,19.5,10.5,19.9,22.9H619.8z M677.9,112.9
		c-9.2,5.8-20.2,9.9-31.2,9.9c-14.9,0-25.7-9.7-26.9-24.6h65.1c0.1-17.3-2.9-31.4-9.2-42.2c-13.5-22.3-53.2-21.5-68.2-1.4
		c-7.3,9.8-11,21.9-11,36.3c0.3,33,16.7,49.9,49.2,50.3c12.9,0.2,23.7-2.6,32.3-7.7V112.9z M770.4,42.8
		c-18.6-6.3-44.1-4.9-57.3,11.3c-7.9,9.4-11.9,21.4-11.9,35.9c0,14.9,4,27.1,11.9,36.5c7.7,9.7,19.2,14.6,34.5,14.7
		c8,0,16.9-0.7,24.5-3.2l-1-20.9c-5.5,2.7-12.8,4.6-18.8,4.6c-8.5-0.1-14.8-3.2-19-9.3c-4.3-5.9-6.4-13.4-6.4-22.4
		c0-9.5,2.3-17,6.9-22.5c8-9.8,23.9-10.6,34.5-4.7L770.4,42.8z"/>
	<path id="Semiconductor" inkscape:connector-curvature="0" inkscape:label="" d="M261,172c-3.9-1.3-8.1-1.9-12.6-1.9
		c-4.8,0-9,1.2-12.6,3.7c-3.8,2.6-5.7,6.9-5.8,13c-0.1,3.7,1.1,7.2,3.7,9.9c2.1,2.2,5.1,3.9,7.9,5c3.4,1.4,8.4,2.7,10.6,6
		c3.9,5.9-2.4,10.5-8.5,10.4c-4.8-0.1-8.2-1.2-11.9-3.4l-1,9.8c4.5,1.1,8.9,2.1,13.5,2.1c5.6,0,10.1-1.4,14-3.9
		c6.7-4.2,8.1-17,2.3-22.8c-4.3-4.3-10.7-5.7-15.9-8.6c-2-1.1-3.7-2.6-3.7-5c0-2.4,0.9-4.7,2.9-6.1c4.5-3,11.7-1.1,16.2,0.9L261,172
		z M281.3,201.5c0.2-2.7,1-5,2.6-6.8c3-3.5,9.8-3.8,12.6,0.1c1.3,1.8,2,4,2.1,6.7H281.3z M305.3,214.7c-3.8,2.4-8.4,4.1-12.9,4.1
		c-6.2,0-10.7-4-11.1-10.1h26.9c0.1-7.2-1.2-13-3.8-17.5c-2.7-4.5-7.6-6.8-14.7-6.8c-6,0-10.5,2.2-13.5,6.2c-3,4-4.6,9-4.5,15
		c0.1,13.7,6.9,20.7,20.4,20.8c5.3,0.1,9.8-1.1,13.4-3.2V214.7z M316.6,225.5h10.1V206c0-5.3,1-13.5,8-13.5c5.6,0,6.2,4.5,6.2,9v24
		H351V206c0-5.4,0.9-13.4,8-13.5c6.7-0.1,6.2,4.5,6.2,9v24h10.1v-25.4c0-4.6-0.7-8.4-2.5-11.3c-1.8-2.9-5.2-4.4-10.1-4.5
		c-5.1,0-10.1,2.5-12.5,7.1c-2.3-4.8-6.2-7.1-11.8-7.1c-5,0-9.1,2.6-11.9,6.5h-0.1v-5.6h-9.7V225.5z M387.1,225.5h10.1v-40.2h-10.1
		V225.5z M387.1,178h10.1v-10h-10.1V178z M434.7,185.7c-2.6-0.9-5.9-1.3-9.8-1.3c-12.1,0.1-18.9,9.3-18.9,20.8
		c0,11.8,6.8,21.1,19.2,21.2c3.3,0,7-0.3,10.1-1.3c-0.1-2.9-0.3-5.8-0.5-8.6c-4.9,2.4-12.1,3.2-15.6-2c-1.8-2.4-2.6-5.5-2.6-9.3
		c0-3.9,1-7,2.9-9.3c3.3-4.1,9.9-4.4,14.3-2C434.1,191.2,434.4,188.5,434.7,185.7z M440.7,205.7c-0.1,11.9,8.3,20.7,20.4,20.7
		c12.2,0,20.5-8.7,20.4-20.7c-0.1-12.3-7.9-21.3-20.4-21.3C448.5,184.4,440.7,193.5,440.7,205.7z M461,192.5
		c13.8,0.1,12.9,26.3,0,25.9C447.9,217.9,447.9,192.4,461,192.5z M490.8,225.5H501v-19.7c0-5.6,2.1-13.3,8.8-13.3
		c7,0,6.6,6.3,6.6,11.5v21.5h10.1v-25.4c0-4.6-1-8.4-3.1-11.3c-2.2-2.9-5.5-4.4-10.1-4.5c-5.3-0.1-9.6,2.1-12.8,6.4h-0.1v-5.5h-9.6
		V225.5z M546.6,205.3c0-5.5,1.7-12.6,8.4-12.8c12.1,0,12.2,25.9,0.1,25.9C548.7,218.4,546.5,210.6,546.6,205.3z M564.4,225.5h9.8
		V167h-10.1v23h-0.2c-2.9-3.7-6.7-5.7-11.6-5.6c-12,0.1-16.4,10.2-16.3,20.9c-0.1,10.6,4.4,20.9,16.3,21.1c4.8,0.1,8.8-1.8,11.9-5.5
		h0.2V225.5z M621.9,185.3h-10.1V205c0,4.1-0.8,9.2-4.3,11.9c-2.1,1.7-6.2,2.2-8.3,0.3c-2.9-2.5-2.9-6.9-2.9-10.3v-21.5h-10.1v25.4
		c0,4.6,1.1,8.3,3.3,11.2c2,3,5.4,4.5,10,4.5c5.3-0.1,9.6-2.3,12.8-6.4h0.1v5.5h9.6V185.3z M659.9,185.7c-7.7-2.6-18.3-2-23.7,4.6
		c-3.3,3.9-5,8.8-4.9,14.9c0.2,17.1,13.1,24.7,29.3,19.9l-0.5-8.6c-4.9,2.4-12,3.2-15.6-2c-3.5-5-3.7-13.8,0.2-18.6
		c3.3-4.1,9.9-4.4,14.3-2L659.9,185.7z M671.7,213.4c0.1,8.4,4.2,12.8,12.3,13c3,0.1,5.5-0.3,7.5-0.9l-0.3-8.2
		c-1.2,0.7-2.7,1.1-4.6,1.1c-3.7-0.1-4.9-3.4-4.8-6.6v-18.8h9v-7.6h-9v-11.4l-10.1,3.4v8h-7.5v7.6h7.5V213.4z M696.3,205.7
		c0,11.9,8.3,20.7,20.4,20.7c12.2,0,20.5-8.7,20.4-20.7c-0.1-12.3-7.9-21.3-20.4-21.3C704.1,184.4,696.3,193.5,696.3,205.7z
		 M716.6,192.5c13.6,0,13.4,25.9,0,25.9C703.8,218.4,703.1,192.5,716.6,192.5z M746.7,225.5h10.1v-14.7c0-5.8,0.1-16.4,8.2-16.4
		c2,0,3.5,0.3,4.5,0.9v-10.5c-3.9-0.7-7.7,0-10.4,3.3c-1.9,2.2-3,4.4-3.3,6.5h-0.1v-9.2h-9V225.5z"/>
</g>
<g id="Logo" inkscape:label="">
	<path id="path7" inkscape:connector-curvature="0" class="st0" d="M104,153.4c1.3,7,3.8,22.8-8.8,33.3c0,0-8.8,7-12.5,8.8
		c-12.5,5.2,15.1,33.3,37.6,14c18.8-15.8-6.3-93-6.3-126.3c0-89.4,72.6-78.9,52.6-70.2C104,34.1,180.4,146.4,144.1,206
		c-42.6,57.9-98.9-10.5-131.5,14c-3.8,3.5-13.8,15.8-12.5,7c11.3-43.9,46.3-38.6,63.9-43.9c26.3-8.8,3.7-54.3,1.2-78.9
		C61.5,78,84,34.1,82.7,32.4c-35,1.8-50.1-10.5-65.1,8.8c-3.7,3.5-6.3,0-3.7-7C26.4,7.8,42.7,6.1,65.2,7.8
		c22.5,1.7,17.5,1.7,32.6,1.7c12.5,0,23.8-5.2,26.3-1.7c2.5,3.5-11.3,5.2-20,26.3c-5,10.5-8.8,29.8-8.8,43.8
		C95.3,106,99,127.1,104,153.4z"/>
	<path id="path15" inkscape:connector-curvature="0" class="st0" d="M181.4,32.4c0,2.4-0.9,4.5-2.6,6.2c-1.7,1.7-3.8,2.6-6.2,2.6
		c-2.4,0-4.5-0.9-6.2-2.6c-1.7-1.7-2.6-3.8-2.6-6.2s0.9-4.5,2.6-6.2c1.7-1.7,3.8-2.6,6.2-2.6c2.4,0,4.5,0.9,6.2,2.6
		C180.6,27.9,181.4,29.9,181.4,32.4z M180.4,32.4c0-2.2-0.8-4-2.3-5.5c-1.5-1.5-3.4-2.3-5.5-2.3c-2.2,0-4,0.8-5.5,2.3
		c-1.5,1.5-2.3,3.4-2.3,5.5s0.8,4,2.3,5.5c1.5,1.5,3.3,2.3,5.5,2.3c2.2,0,4-0.8,5.5-2.3C179.7,36.4,180.4,34.5,180.4,32.4z
		 M168.6,27.2h4.5c1.5,0,3.2,0.6,3.2,2.4c0,1.5-1.2,2.2-2.5,2.4l2.5,3.2c0.3,0.4,0.6,0.7,0.8,0.8c0.1,0.1,0.3,0.2,0.6,0.2v0.4h-2.1
		l-3.5-4.4h-0.9v2.4c0,0.7,0.1,1.1,0.2,1.3c0.1,0.2,0.5,0.3,0.9,0.3v0.4h-3.9v-0.4c0.5,0,0.8-0.1,1-0.3c0.2-0.2,0.2-0.6,0.2-1.2
		v-5.7c0-0.5-0.1-0.9-0.2-1.1c-0.1-0.2-0.4-0.3-0.9-0.4V27.2z M171.2,31.7c1.4,0.1,3.4-0.1,3.4-2c0-0.6-0.2-1-0.6-1.4
		c-0.8-0.7-1.9-0.6-2.8-0.3V31.7z"/>
</g>
</svg>
