<svg xmlns="http://www.w3.org/2000/svg" viewBox="0 0 93.37 17.04"><defs><style>.cls-1{fill:#221815;}</style></defs><title>logo-citizen</title><g id="レイヤー_2" data-name="レイヤー 2"><g id="レイヤー_1-2" data-name="レイヤー 1"><path class="cls-1" d="M22.34,15.33c-1.06,0-1.54-.25-1.54-1.51V3.31c0-1.26.4-1.42,1.46-1.42h.68V.59H16v1.3h.75c1,0,1.45.34,1.45,1.42V13.82c0,1.07-.57,1.51-1.57,1.51H16v1.3h7v-1.3Z"/><path class="cls-1" d="M45.89,15.33c-1.07,0-1.54-.25-1.54-1.51V3.31c0-1.26.39-1.42,1.46-1.42h.67V.59H39.54v1.3h.74c1,0,1.45.34,1.45,1.42V13.82c0,1.07-.57,1.51-1.56,1.51H39.5v1.3h7v-1.3Z"/><path class="cls-1" d="M24.46.59V4.82h1.2V3.94c0-1.07.39-2,1.82-2h2.46V13.82c0,1.07-.65,1.51-1.64,1.51h-.73v1.3H34.9v-1.3h-.72c-1,0-1.63-.44-1.63-1.51V1.89H35c1.43,0,1.82,1,1.82,2.05v.88H38V.59Z"/><path class="cls-1" d="M59.69,12.28v.28c0,1.33-.37,2.77-3.22,2.77H51.54L60.72,1.89V.59H48.59V4.93h1.23V4.4a2.25,2.25,0,0,1,2.49-2.51h5.15L48.31,15.33v1.3H60.89V12.28Z"/><path class="cls-1" d="M74.54,12.26v.43a2.34,2.34,0,0,1-2.47,2.64H67.3V9.05h2.87c1.16,0,1.42,1,1.42,1.67v.66h1.25v-6H71.59v.54c0,.68-.26,1.66-1.42,1.66H67.3V1.89h4.55a2.23,2.23,0,0,1,2.33,2.6v.35h1.21V.59H62.63v1.3h.29C64,1.89,64.59,2,64.59,3V14c0,1.15-.76,1.32-1.48,1.32h-.4v1.3h13V12.26Z"/><path class="cls-1" d="M87.65.59v1.3H88c1.26,0,1.71.43,1.71,1.52v8.9L81.71.59H77.5v1.3h.39c.79,0,1.39.32,1.39,1.55v10.5a1.28,1.28,0,0,1-1.35,1.39h-.54v1.3h5.47v-1.3h-.52a1.27,1.27,0,0,1-1.46-1.39V4.13l8.57,12.5h1.87V3.41c0-1.09.45-1.52,1.72-1.52h.33V.59Z"/><path class="cls-1" d="M8.92,15.77c-3.19,0-5.72-3-5.72-7.15C3.2,4.15,5,1.27,8.61,1.27c3,0,4.15,1.53,4.62,3.43h1.14C14.22,3.57,14,1.6,14,1.16A18.47,18.47,0,0,0,8.43,0C3.53,0,0,3.35,0,8.62A8.29,8.29,0,0,0,8.38,17,9.19,9.19,0,0,0,14,15.33c.08-.41.36-1.61.64-2.58H13.41a4.6,4.6,0,0,1-4.49,3"/></g></g></svg>